<svg width="28" height="28" viewBox="0 0 28 28" fill="none" xmlns="http://www.w3.org/2000/svg">
<path d="M22.0054 24.5C22.5631 23.238 22.8135 21.8616 22.7359 20.484C22.6583 19.1063 22.2549 17.7668 21.5589 16.5754C20.8628 15.384 19.8941 14.3747 18.7321 13.6306C17.5702 12.8864 16.2483 12.4285 14.875 12.2946V8.75H17.5C19.1239 8.74815 20.6807 8.10224 21.829 6.95398C22.9772 5.80572 23.6231 4.24888 23.625 2.625C23.625 2.39294 23.5328 2.17038 23.3687 2.00628C23.2046 1.84219 22.9821 1.75 22.75 1.75H19.25C17.9956 1.75237 16.772 2.13957 15.7446 2.85935C14.7172 3.57912 13.9354 4.59681 13.5048 5.775C12.9321 5.06514 12.2079 4.49241 11.3851 4.09876C10.5624 3.70511 9.66205 3.50053 8.75 3.5H5.25C5.01794 3.5 4.79538 3.59219 4.63128 3.75628C4.46719 3.92038 4.375 4.14294 4.375 4.375C4.37685 5.99888 5.02276 7.55572 6.17102 8.70398C7.31928 9.85224 8.87612 10.4981 10.5 10.5H13.125V12.2946C11.7517 12.4285 10.4298 12.8864 9.26786 13.6306C8.10593 14.3747 7.13716 15.384 6.44115 16.5754C5.74513 17.7668 5.34174 19.1063 5.26412 20.484C5.18649 21.8616 5.43685 23.238 5.99463 24.5H1.75V26.25H26.25V24.5H22.0054ZM19.25 3.5H21.7875C21.5844 4.48751 21.0471 5.37482 20.2661 6.01237C19.4851 6.64992 18.5082 6.99873 17.5 7H14.9625C15.1656 6.01249 15.7029 5.12518 16.4839 4.48763C17.2649 3.85008 18.2418 3.50127 19.25 3.5ZM10.5 8.75C9.49182 8.74873 8.5149 8.39992 7.73391 7.76237C6.95291 7.12482 6.41558 6.23751 6.2125 5.25H8.75C9.75818 5.25127 10.7351 5.60008 11.5161 6.23763C12.2971 6.87518 12.8344 7.76249 13.0375 8.75H10.5ZM7 21C6.99465 19.9231 7.23782 18.8595 7.71061 17.892C8.18339 16.9245 8.87303 16.079 9.72588 15.4215C10.5787 14.764 11.5718 14.3121 12.6278 14.101C13.6837 13.8899 14.7742 13.9253 15.8143 14.2044C16.8544 14.4836 17.816 14.9989 18.6244 15.7103C19.4328 16.4218 20.0662 17.3101 20.4753 18.3063C20.8843 19.3025 21.058 20.3796 20.9828 21.4538C20.9077 22.5281 20.5857 23.5705 20.0419 24.5H15.9425C16.2847 24.1249 16.5102 23.6583 16.5915 23.1571C16.6728 22.656 16.6063 22.142 16.4003 21.678C16.1943 21.214 15.8576 20.82 15.4313 20.5442C15.0051 20.2684 14.5077 20.1228 14 20.125C13.8269 20.125 13.6578 20.0737 13.5139 19.9775C13.37 19.8814 13.2578 19.7447 13.1916 19.5848C13.1254 19.425 13.1081 19.249 13.1418 19.0793C13.1756 18.9096 13.2589 18.7537 13.3813 18.6313C13.5037 18.5089 13.6596 18.4256 13.8293 18.3918C13.999 18.3581 14.175 18.3754 14.3348 18.4416C14.4947 18.5078 14.6314 18.62 14.7275 18.7639C14.8237 18.9078 14.875 19.0769 14.875 19.25H16.625C16.6228 18.709 16.4534 18.1819 16.1402 17.7409C15.8269 17.2998 15.385 16.9663 14.875 16.786V15.75H13.125V16.786C12.5417 16.9915 12.0498 17.3968 11.7367 17.9301C11.4235 18.4634 11.3092 19.0904 11.414 19.6999C11.5188 20.3094 11.836 20.8622 12.3093 21.2603C12.7826 21.6584 13.3815 21.8762 14 21.875C14.1731 21.875 14.3422 21.9263 14.4861 22.0225C14.63 22.1186 14.7422 22.2553 14.8084 22.4152C14.8746 22.575 14.8919 22.751 14.8582 22.9207C14.8244 23.0904 14.7411 23.2463 14.6187 23.3687C14.4963 23.4911 14.3404 23.5744 14.1707 23.6082C14.001 23.6419 13.825 23.6246 13.6652 23.5584C13.5053 23.4922 13.3686 23.38 13.2725 23.2361C13.1763 23.0922 13.125 22.9231 13.125 22.75H11.375C11.3769 23.3979 11.6203 24.0218 12.0575 24.5H7.95813C7.33472 23.4387 7.00409 22.2309 7 21Z" fill="#3689B1"/>
</svg>
