<?xml version="1.0" encoding="UTF-8"?>
<svg version="1.1" xmlns="http://www.w3.org/2000/svg" width="1600" height="458">
<path d="M0 0 C528 0 1056 0 1600 0 C1600 151.14 1600 302.28 1600 458 C1072 458 544 458 0 458 C0 306.86 0 155.72 0 0 Z " fill="#F6F6F7" transform="translate(0,0)"/>
<path d="M0 0 C29.04 0 58.08 0 88 0 C88 1.98 88 3.96 88 6 C86.35 6.66 84.7 7.32 83 8 C83.42681317 15.10339062 86.42227237 20.9212337 89.375 27.3125 C90.47986056 29.74912538 91.58292526 32.18648604 92.68359375 34.625 C92.96354691 35.24317093 93.24350006 35.86134186 93.53193665 36.49824524 C96.27054325 42.56013825 98.86624341 48.67819609 101.4375 54.8125 C105.25652657 63.89990558 109.13251996 72.96001346 113.0625 82 C118.02279996 93.41113528 122.93944245 104.84045887 127.83544922 116.27932739 C136.25237104 135.94513644 136.25237104 135.94513644 144.7121582 155.5925293 C145.27517278 156.89685449 145.83735916 158.20153751 146.39868164 159.5065918 C147.16061823 161.27752342 147.92590888 163.04701088 148.69140625 164.81640625 C149.11623291 165.80068604 149.54105957 166.78496582 149.97875977 167.79907227 C150.8132632 169.92786282 150.8132632 169.92786282 152 171 C152.2995459 170.30592041 152.5990918 169.61184082 152.90771484 168.89672852 C159.80323126 152.92904803 166.75068896 136.98495989 173.75 121.0625 C179.70763137 107.50872669 185.64972851 93.94840821 191.5625 80.375 C192.07875443 79.18993362 192.07875443 79.18993362 192.60543823 77.98092651 C194.34866782 73.9789866 196.0914582 69.97685561 197.83398438 65.97460938 C201.28383924 58.05105649 204.73554147 50.12830871 208.18795776 42.20587158 C209.28193148 39.69515603 210.37548185 37.1842564 211.46899414 34.67333984 C211.80833481 33.8949173 212.14767548 33.11649475 212.49729919 32.31448364 C213.14630862 30.82427526 213.79395417 29.33347197 214.44007874 27.8420105 C216.07509958 24.07592558 217.77815646 20.35597567 219.54296875 16.6484375 C221.00547239 12.98629701 221.15145753 12.45199453 220 9 C217.69 8.34 215.38 7.68 213 7 C213 4.69 213 2.38 213 0 C242.7 0 272.4 0 303 0 C303 1.98 303 3.96 303 6 C299.535 7.485 299.535 7.485 296 9 C296 87.21 296 165.42 296 246 C298.31 246.66 300.62 247.32 303 248 C303 250.31 303 252.62 303 255 C283.2 255 263.4 255 243 255 C243 253.02 243 251.04 243 249 C245.31 248.01 247.62 247.02 250 246 C250 182.64 250 119.28 250 54 C234.77786926 86.84209706 234.77786926 86.84209706 219.7421875 119.765625 C215.69470755 128.69236767 211.5978666 137.59630368 207.5 146.5 C201.84886306 158.77924525 196.2326714 171.07356079 190.65139771 183.38470459 C185.08984587 195.64768798 179.44904084 207.87327838 173.79525757 220.09396362 C166.43033717 236.01797126 159.184444 251.99381688 152 268 C149.66657621 265.87619236 148.34878486 263.99030078 147.08984375 261.10546875 C146.74526123 260.32679443 146.40067871 259.54812012 146.0456543 258.74584961 C145.67996338 257.90159424 145.31427246 257.05733887 144.9375 256.1875 C144.13079638 254.35911544 143.3234838 252.53099945 142.515625 250.703125 C142.09990234 249.75759766 141.68417969 248.81207031 141.25585938 247.83789062 C139.27140012 243.35356824 137.22714241 238.89691858 135.1875 234.4375 C130.84821959 224.92189456 126.59422498 215.36941116 122.3737793 205.80053711 C119.00260286 198.17922681 115.51196565 190.61861991 111.97244263 183.07461548 C102.13269928 162.08244248 92.39680607 141.04882949 83.0453186 119.83422852 C76.64176594 105.31757838 69.99337089 90.91882231 63.29296875 76.53710938 C62.90345032 75.7008049 62.51393188 74.86450043 62.11260986 74.00285339 C61.3898559 72.45206033 60.6662601 70.90165916 59.94158936 69.35176086 C57.56559134 64.25872136 55.2835042 59.13788444 53 54 C52.67 117.69 52.34 181.38 52 247 C54.31 247.66 56.62 248.32 59 249 C59 250.98 59 252.96 59 255 C39.2 255 19.4 255 -1 255 C-1 253.02 -1 251.04 -1 249 C1.31 248.01 3.62 247.02 6 246 C6 167.79 6 89.58 6 9 C4.02 8.01 2.04 7.02 0 6 C0 4.02 0 2.04 0 0 Z " fill="#016894" transform="translate(501,140)"/>
<path d="M0 0 C28.71 0 57.42 0 87 0 C87 2.31 87 4.62 87 7 C85.68 7.33 84.36 7.66 83 8 C83.44493676 15.17072506 86.43222894 21.18448602 89.3125 27.6875 C89.85865073 28.93783823 90.40388025 30.18857921 90.94824219 31.43969727 C92.07541414 34.02841369 93.20648249 36.61537367 94.34033203 39.20117188 C96.84846202 44.9302058 99.29520733 50.68546874 101.75 56.4375 C106.45559571 67.42687343 111.19187548 78.40286778 115.9375 89.375 C116.27839661 90.16321136 116.61929321 90.95142273 116.97052002 91.76351929 C120.44702063 99.80067793 123.92713228 107.83624431 127.41796875 115.8671875 C135.38447876 134.20052675 143.21965023 152.58703375 151 171 C155.31308598 162.68169617 159.13817715 154.22332099 162.7772522 145.59436035 C164.3908716 141.77083923 166.01895123 137.95349992 167.6484375 134.13671875 C167.99419327 133.32683502 168.33994904 132.51695129 168.69618225 131.68252563 C172.98304118 121.66755358 177.39830323 111.70932946 181.8125 101.75 C183.44279029 98.07034881 185.07298939 94.39065722 186.703125 90.7109375 C187.27919998 89.41079964 187.27919998 89.41079964 187.86691284 88.08439636 C190.98700061 81.03882623 194.07560599 73.98013326 197.12817383 66.9050293 C199.4907121 61.43957805 201.88751451 55.99014183 204.30406189 50.54840088 C205.95699309 46.82518721 207.60516801 43.0998742 209.25338745 39.37457275 C210.07669314 37.51738345 210.90227288 35.6612004 211.73025513 33.80609131 C212.89894338 31.1870846 214.0595564 28.56462646 215.21875 25.94140625 C215.74619057 24.7677375 215.74619057 24.7677375 216.2842865 23.57035828 C218.3952146 18.76836831 219.86301128 14.12335552 221 9 C218.36 8.34 215.72 7.68 213 7 C213 4.69 213 2.38 213 0 C242.37 0 271.74 0 302 0 C302 2.31 302 4.62 302 7 C300.02 7.66 298.04 8.32 296 9 C296 87.21 296 165.42 296 246 C298.31 246.99 300.62 247.98 303 249 C303 250.98 303 252.96 303 255 C283.2 255 263.4 255 243 255 C243 253.02 243 251.04 243 249 C245.31 248.01 247.62 247.02 250 246 C250 182.31 250 118.62 250 53 C244.06 65.87 238.12 78.74 232 92 C229.10879166 98.23234536 226.21724692 104.46446563 223.32119751 110.69454956 C214.44260347 129.80321845 205.65356358 148.95243238 197.13061523 168.22290039 C192.69876781 178.23968674 188.16811493 188.20566009 183.55969238 198.14239502 C176.62382453 213.10019423 169.75148776 228.08575662 162.94702148 243.10375977 C159.33051384 251.08447625 155.68320424 259.04983208 152 267 C151.34 267 150.68 267 150 267 C143.82129253 254.15699558 137.88360831 241.20868686 132.00146484 228.22802734 C131.3421438 226.77310228 130.68280116 225.318187 130.0234375 223.86328125 C129.52739517 222.7686557 129.52739517 222.7686557 129.02133179 221.6519165 C126.70638574 216.54734363 124.37709557 211.44950467 122.0390625 206.35546875 C114.9002021 190.79676624 107.85383222 175.20374483 100.93591309 159.54547119 C95.89557028 148.14821381 90.69274401 136.83799337 85.37133789 125.56951904 C78.71244919 111.46520058 72.35293349 97.24784114 66 83 C61.38 72.77 56.76 62.54 52 52 C52 116.02 52 180.04 52 246 C54.31 246.99 56.62 247.98 59 249 C59 250.98 59 252.96 59 255 C39.2 255 19.4 255 -1 255 C-1 253.02 -1 251.04 -1 249 C1.31 248.01 3.62 247.02 6 246 C6 167.79 6 89.58 6 9 C4.02 8.01 2.04 7.02 0 6 C0 4.02 0 2.04 0 0 Z " fill="#016993" transform="translate(18,140)"/>
<path d="M0 0 C83.55369128 0 83.55369128 0 98 14 C112.70071926 32.00900296 114.14649118 54.06840471 114.16113281 76.43334961 C114.16576859 78.09018055 114.17079426 79.74701043 114.17617798 81.40383911 C114.18923403 85.8857764 114.19573403 90.36769874 114.20018864 94.84965205 C114.20313143 97.65847835 114.20723852 100.46730067 114.21169281 103.27612495 C114.22535217 112.08927831 114.23502547 120.90242245 114.2388947 129.71558565 C114.24336652 139.84199497 114.26088026 149.96826872 114.2898953 160.09463686 C114.31161746 167.95236222 114.32160463 175.81004975 114.32293582 183.66780478 C114.32397668 188.34640425 114.32972896 193.02487604 114.34775543 197.70344353 C114.36441865 202.11371434 114.36630468 206.52376396 114.35761642 210.93405533 C114.3568556 212.53745307 114.36105976 214.14086362 114.37107468 215.74423027 C114.49659765 237.12356573 111.57045732 261.13628357 97.265625 278.05078125 C81.83135384 292.92440581 60.09129478 294.18740533 39.90844727 294.18530273 C37.5982759 294.18746649 35.28860155 294.20561561 32.97851562 294.22460938 C21.72146312 294.23894957 11.33219232 293.19286235 0 292 C0 195.64 0 99.28 0 0 Z " fill="#016894" transform="translate(355,103)"/>
<path d="M0 0 C28.41666667 0 28.41666667 0 34.6875 5.25 C35.450625 6.1575 36.21375 7.065 37 8 C37.43183594 8.49242187 37.86367188 8.98484375 38.30859375 9.4921875 C47.61289649 21.032836 46.15167781 38.11799043 46.16113281 52.07202148 C46.16577024 53.67811698 46.17079611 55.28421139 46.17617798 56.89030457 C46.18921791 61.22969233 46.19573078 65.56906469 46.20018864 69.90846896 C46.20313395 72.6293659 46.20724148 75.35025877 46.21169281 78.07115364 C46.22534769 86.61253221 46.23502328 95.15390131 46.2388947 103.69529003 C46.24336595 113.50189837 46.26087888 123.30836667 46.2898953 133.11493248 C46.31163195 140.72980825 46.32160538 148.34464498 46.32293582 155.95955139 C46.32397562 160.4911754 46.32970468 165.02266745 46.34775543 169.55425835 C46.5375495 220.13223741 46.5375495 220.13223741 38 230 C27.60613705 239.21063302 12.84623904 238 0 238 C0 159.46 0 80.92 0 0 Z " fill="#F1F4F6" transform="translate(389,130)"/>
<path d="M0 0 C57.5703125 0 57.5703125 0 66.53515625 8.4375 C73.20437628 15.5513347 74.51114911 23.35256198 74.30859375 32.77734375 C73.3922465 42.34679291 70.52321092 50.77073038 63 57 C61.28215076 57.96108026 59.5327531 58.86771116 57.7578125 59.71875 C56.41807373 60.3674707 56.41807373 60.3674707 55.05126953 61.02929688 C54.37435059 61.34962891 53.69743164 61.66996094 53 62 C53.30067383 62.5762915 53.60134766 63.15258301 53.91113281 63.74633789 C54.33749023 64.56352295 54.76384766 65.38070801 55.203125 66.22265625 C55.68362305 67.14353027 56.16412109 68.0644043 56.65917969 69.01318359 C57.72780556 71.06154719 58.79616096 73.11005191 59.86425781 75.15869141 C62.72612803 80.64687661 65.59264517 86.13254067 68.46875 91.61328125 C69.01885742 92.66314209 69.56896484 93.71300293 70.13574219 94.79467773 C71.20246868 96.83020226 72.27079959 98.86488688 73.34082031 100.89868164 C73.82131836 101.81641357 74.30181641 102.73414551 74.796875 103.6796875 C75.43641113 104.89760986 75.43641113 104.89760986 76.08886719 106.14013672 C77 108 77 108 77 109 C72.05 109 67.1 109 62 109 C55.57062303 97.45758213 49.29034636 85.91332258 43.76782227 73.9050293 C43.26013306 72.80155151 43.26013306 72.80155151 42.7421875 71.67578125 C42.4519873 71.03552002 42.16178711 70.39525879 41.86279297 69.7355957 C40.91168884 67.73067992 40.91168884 67.73067992 39 65 C39 64.01 39 63.02 39 62 C30.42 62 21.84 62 13 62 C13 77.51 13 93.02 13 109 C8.71 109 4.42 109 0 109 C0 73.03 0 37.06 0 0 Z " fill="#076691" transform="translate(1219,280)"/>
<path d="M0 0 C22.11 0 44.22 0 67 0 C67 3.96 67 7.92 67 12 C49.51 12 32.02 12 14 12 C14 23.88 14 35.76 14 48 C30.5 48 47 48 64 48 C64 51.96 64 55.92 64 60 C47.5 60 31 60 14 60 C14 72.21 14 84.42 14 97 C31.49 97 48.98 97 67 97 C67 100.96 67 104.92 67 109 C44.89 109 22.78 109 0 109 C0 73.03 0 37.06 0 0 Z " fill="#0C6A93" transform="translate(915,280)"/>
<path d="M0 0 C4.29 0 8.58 0 13 0 C13.01213028 1.33518425 13.01213028 1.33518425 13.02450562 2.69734192 C13.10276535 11.12638517 13.19014818 19.55527548 13.28752708 27.98412037 C13.33726368 32.3164487 13.38359381 36.64875528 13.421875 40.98120117 C13.45901617 45.16994189 13.50545013 49.35848991 13.55806351 53.54706383 C13.57645558 55.13723016 13.59161819 56.72743755 13.60334396 58.31766701 C13.34763173 77.84569251 13.34763173 77.84569251 22.375 94.375 C30.12948131 99.17539319 39.75945649 99.22701931 48.54296875 97.5 C54.57048288 95.4480803 58.83948296 92.20098059 61.8125 86.5625 C63.73446754 80.79659738 64.15552902 75.29298404 64.20532227 69.25048828 C64.21522186 68.49858719 64.22512146 67.7466861 64.23532104 66.97200012 C64.26672395 64.50480214 64.2916089 62.03758496 64.31640625 59.5703125 C64.33699413 57.85252401 64.35799107 56.13474038 64.37937927 54.41696167 C64.4344106 49.90926055 64.48390292 45.40151515 64.53222656 40.89373779 C64.5825804 36.28849373 64.6381938 31.68331349 64.69335938 27.078125 C64.80070911 18.05213597 64.90171855 9.02609233 65 0 C69.62 0 74.24 0 79 0 C79.06825071 9.11129437 79.12308659 18.22241411 79.15543652 27.33390808 C79.17097648 31.56645336 79.19199628 35.79881205 79.22631836 40.03125 C79.25933473 44.12913805 79.27694028 48.22684865 79.28463173 52.32485962 C79.29010053 53.87467231 79.30077499 55.42447724 79.31719017 56.97421265 C79.47499451 72.51528119 78.64308049 89.25155376 68.4765625 101.89453125 C66.75040705 103.55753467 65.05036142 104.75888939 63 106 C62.22785156 106.48339844 61.45570312 106.96679688 60.66015625 107.46484375 C49.128393 113.43753605 33.22604828 112.74967356 21 109 C13.67191694 105.98984896 8.15476314 101.69354346 4.81640625 94.421875 C3.75087678 91.62729954 2.81403802 88.87873446 2 86 C1.65630371 84.81784912 1.31260742 83.63569824 0.95849609 82.41772461 C-0.69646221 74.8410412 -0.24491969 66.99140256 -0.1953125 59.27734375 C-0.19157665 57.56384955 -0.18873238 55.85035319 -0.18673706 54.13685608 C-0.1791456 49.65375748 -0.15953627 45.17079099 -0.1373291 40.68774414 C-0.11677338 36.10239447 -0.10771465 31.51702321 -0.09765625 26.93164062 C-0.07628564 17.95436943 -0.04220464 8.97719575 0 0 Z " fill="#086892" transform="translate(1109,280)"/>
<path d="M0 0 C1.84053431 1.58502484 3.37995625 3.17745079 5 5 C5.99 5.99 5.99 5.99 7 7 C7 8.8125 7 8.8125 6 11 C1.06451613 15.93548387 1.06451613 15.93548387 -2.0625 16.125 C-4.84069546 14.51185425 -6.79174181 12.3186711 -9 10 C-15.31639716 4.13477406 -23.66638983 3.49931222 -31.91015625 3.7109375 C-38.28589745 4.30740381 -43.34695939 6.48381353 -48 11 C-50.73299152 15.50366209 -50.60059558 19.87913242 -50 25 C-48.98102241 28.78477389 -47.26265305 31.05035758 -44.140625 33.3984375 C-38.06582982 36.85478648 -31.58772212 38.08626531 -24.82788086 39.48999023 C-12.69425476 42.04969363 -2.16396335 45.62504979 5.4375 55.953125 C9.60522884 63.53607608 9.13184596 73.68032397 7.375 81.9375 C4.79040722 89.32205079 -0.0162489 95.66219648 -6.7890625 99.63671875 C-17.85189377 104.84012591 -31.98264287 106.37168068 -43.921875 103.09375 C-50.38415058 100.72728289 -55.87361236 97.58127402 -61 93 C-61.61101563 92.48050781 -62.22203125 91.96101563 -62.8515625 91.42578125 C-64.5625 89.875 -64.5625 89.875 -67 87 C-66.82304053 84.36642678 -66.22463338 83.24546405 -64.44140625 81.296875 C-63.82136719 80.78640625 -63.20132813 80.2759375 -62.5625 79.75 C-61.63630859 78.96882813 -61.63630859 78.96882813 -60.69140625 78.171875 C-59 77 -59 77 -57 77 C-56.319375 77.86625 -55.63875 78.7325 -54.9375 79.625 C-50.35537582 85.34587693 -44.04603856 89.13764876 -37 91 C-28.8354198 91.64545449 -20.27331259 92.17542019 -13 88 C-8.37991833 83.7776737 -6.28599637 80.40851406 -5.76171875 74.16015625 C-5.56458074 67.92399522 -5.56458074 67.92399522 -7.375 62.0625 C-14.45073947 56.50299042 -21.90509245 54.40803539 -30.5300293 52.51269531 C-41.41922686 50.08083472 -53.89480671 46.7217826 -60.40234375 36.87890625 C-64.69405656 28.55512161 -65.52011528 19.26626414 -62.9375 10.1875 C-59.83504511 2.35954669 -54.24766596 -2.62945266 -46.66796875 -6.03515625 C-30.82300812 -11.76532503 -13.65908191 -9.97488918 0 0 Z " fill="#086792" transform="translate(881,287)"/>
<path d="M0 0 C5.07557734 3.95145618 9.79028488 8.82774271 12.328125 14.8125 C12.390625 16.8125 12.390625 16.8125 11.328125 18.8125 C8.078936 21.23900431 5.42714244 22.8125 1.328125 22.8125 C-0.06640625 21.01953125 -0.06640625 21.01953125 -1.484375 18.625 C-5.55357178 12.27186679 -9.73965132 8.47041966 -17.12109375 6.32421875 C-25.19917591 4.70365403 -32.19969773 5.06303858 -39.41796875 9.2109375 C-46.94792008 14.5615095 -50.15011375 21.08124063 -52.671875 29.8125 C-52.8476709 30.38516602 -53.0234668 30.95783203 -53.20458984 31.54785156 C-54.22482735 36.49232551 -53.89807264 41.66402659 -53.91210938 46.69970703 C-53.92171596 48.7780922 -53.9527155 50.85544456 -53.984375 52.93359375 C-54.09054963 66.21813505 -52.45987545 77.87022681 -42.921875 87.625 C-34.82221776 93.07669238 -26.31123888 93.96134587 -16.671875 92.8125 C-8.11366231 90.22780489 -2.98937842 85.06125627 1.203125 77.375 C1.76 76.1065625 1.76 76.1065625 2.328125 74.8125 C5.48143054 75.41944155 7.51701367 76.4541665 10.078125 78.375 C10.69171875 78.83003906 11.3053125 79.28507812 11.9375 79.75390625 C12.62585937 80.27791016 12.62585937 80.27791016 13.328125 80.8125 C10.08364999 90.00517918 3.91159232 97.20450543 -4.734375 101.625 C-11.55348596 104.8632488 -17.35774334 106.20237976 -24.859375 106.1875 C-25.70072998 106.18588867 -26.54208496 106.18427734 -27.40893555 106.18261719 C-36.62356898 106.00167723 -44.37904954 103.61361116 -51.671875 97.8125 C-52.49751953 97.16087891 -52.49751953 97.16087891 -53.33984375 96.49609375 C-63.40208256 87.63332712 -67.85517339 73.47210869 -68.95507812 60.46289062 C-69.07151558 57.09409839 -69.08893023 53.74546091 -69.046875 50.375 C-69.03672363 49.19284912 -69.02657227 48.01069824 -69.01611328 46.79272461 C-68.71368121 29.78267865 -65.05239183 15.53767529 -52.95703125 2.9375 C-38.4256898 -10.57540555 -16.3356124 -10.53910477 0 0 Z " fill="#086892" transform="translate(1072.671875,285.1875)"/>
<path d="M0 0 C4.95 0 9.9 0 15 0 C15.78761719 1.46566406 16.57523438 2.93132812 17.38671875 4.44140625 C23.75501872 16.26106564 30.21372415 28.01993802 36.86010742 39.68579102 C37.37420166 40.58869873 37.8882959 41.49160645 38.41796875 42.421875 C38.86938232 43.21174805 39.3207959 44.00162109 39.78588867 44.81542969 C40.5873414 46.25749665 41.33942305 47.72826034 42.03637695 49.22363281 C42.87644481 51.17695349 42.87644481 51.17695349 45 52 C45.11158447 51.44328613 45.22316895 50.88657227 45.33813477 50.31298828 C46.10671851 47.62705602 47.24904087 45.44400621 48.58984375 42.9921875 C49.38853882 41.52434814 49.38853882 41.52434814 50.20336914 40.02685547 C50.77563232 38.98674316 51.34789551 37.94663086 51.9375 36.875 C52.52072021 35.80781738 53.10394043 34.74063477 53.70483398 33.64111328 C55.46499267 30.42469437 57.23194519 27.21208364 59 24 C59.98177644 22.20833641 60.96354772 20.41666998 61.9453125 18.625 C62.81705443 17.04130655 63.68940885 15.45795002 64.5625 13.875 C64.95493896 13.16069824 65.34737793 12.44639648 65.75170898 11.71044922 C66.47995865 10.39843261 67.2193963 9.09253605 67.97216797 7.79443359 C68.96149251 6.06722804 69.87898518 4.29947965 70.79296875 2.53125 C73 0 73 0 76.671875 -0.5859375 C78.0324902 -0.54630793 79.39249197 -0.47508093 80.75 -0.375 C81.44738281 -0.34792969 82.14476562 -0.32085937 82.86328125 -0.29296875 C84.57685705 -0.22254783 86.28883302 -0.11492913 88 0 C83.30860627 9.8022167 78.07577327 19.14097113 72.50537109 28.46435547 C68.96071715 34.43496459 65.48825616 40.44829037 61.99780273 46.45068359 C61.43649658 47.41441895 60.87519043 48.3781543 60.296875 49.37109375 C59.75111816 50.33337891 59.20536133 51.29566406 58.64306641 52.28710938 C57 55 57 55 55.27490234 57.15039062 C48.63140857 65.88195247 50.108399 77.18131046 50.125 87.625 C50.1068532 89.69924399 50.08604433 91.7734665 50.0625 93.84765625 C50.01091708 98.89871143 49.99555063 103.94869606 50 109 C45.71 109 41.42 109 37 109 C37.05349609 107.84927002 37.10699219 106.69854004 37.16210938 105.51293945 C38.1925414 79.91820214 36.74689348 61.15128831 21.98388672 39.87939453 C19.29865658 35.98207676 16.96581449 31.92162877 14.625 27.8125 C13.8618051 26.52459852 13.09622324 25.23810818 12.328125 23.953125 C9.60735065 19.36211198 6.98192357 14.71890629 4.375 10.0625 C3.71685303 8.89714722 3.71685303 8.89714722 3.04541016 7.70825195 C0 2.23647242 0 2.23647242 0 0 Z " fill="#076691" transform="translate(1468,280)"/>
<path d="M0 0 C27.39 0 54.78 0 83 0 C83 3.96 83 7.92 83 12 C71.78 12 60.56 12 49 12 C49 44.01 49 76.02 49 109 C44.38 109 39.76 109 35 109 C35 76.99 35 44.98 35 12 C23.45 12 11.9 12 0 12 C0 8.04 0 4.08 0 0 Z " fill="#0A6993" transform="translate(1375,280)"/>
<path d="M0 0 C14.19 0 28.38 0 43 0 C43 3.63 43 7.26 43 11 C38.05 11 33.1 11 28 11 C28 39.71 28 68.42 28 98 C32.95 98 37.9 98 43 98 C43 101.63 43 105.26 43 109 C28.81 109 14.62 109 0 109 C0 105.37 0 101.74 0 98 C4.95 98 9.9 98 15 98 C15 69.29 15 40.58 15 11 C10.05 11 5.1 11 0 11 C0 7.37 0 3.74 0 0 Z " fill="#026592" transform="translate(1317,280)"/>
<path d="M0 0 C8.6625 -0.1546875 8.6625 -0.1546875 17.5 -0.3125 C19.30662109 -0.35802002 21.11324219 -0.40354004 22.97460938 -0.45043945 C37.51422311 -0.66969987 37.51422311 -0.66969987 42.671875 3.53198242 C47.04277007 8.36326773 47.5537211 13.1474853 47.5 19.375 C47.49500488 20.12797363 47.49000977 20.88094727 47.48486328 21.65673828 C47.32726346 26.66406504 46.64305469 30.3904787 43.6796875 34.5546875 C38.62031986 38.90809687 33.89313298 39.4235882 27.5390625 39.29296875 C26.83740967 39.28994751 26.13575684 39.28692627 25.4128418 39.28381348 C22.81674276 39.2682352 20.22085505 39.22635187 17.625 39.1875 C8.900625 39.0946875 8.900625 39.0946875 0 39 C0 26.13 0 13.26 0 0 Z " fill="#F3F6F7" transform="translate(1232,292)"/>
<path d="M0 0 C71 0 71 0 75 2 C73.66909081 1.99666908 73.66909081 1.99666908 72.31129456 1.99327087 C63.96755343 1.97327039 55.62382031 1.95802711 47.28006077 1.94818783 C42.99000085 1.94295939 38.69996067 1.93586247 34.40991211 1.92456055 C30.273206 1.91373025 26.13651892 1.90772286 21.99979973 1.90512276 C20.41807696 1.90326876 18.83635529 1.89964864 17.25464058 1.89426994 C15.04677162 1.8870576 12.83898227 1.88600914 10.63110352 1.88647461 C9.37201675 1.884254 8.11292999 1.88203339 6.81568909 1.87974548 C4.09664705 1.67792274 4.09664705 1.67792274 3 3 C2.89811591 4.5323902 2.86601906 6.06946689 2.8613348 7.60523319 C2.85586036 8.60695877 2.85038591 9.60868435 2.84474558 10.64076525 C2.84376747 11.75455457 2.84278936 12.86834389 2.84178162 14.0158844 C2.83684364 15.18871835 2.83190566 16.3615523 2.82681805 17.56992668 C2.81406094 20.83992089 2.80580375 24.10989195 2.79939139 27.37990367 C2.79140999 30.90072224 2.77770449 34.42151891 2.76467896 37.94232178 C2.74288401 44.04719421 2.72475061 50.15206882 2.70907402 56.25695992 C2.6864028 65.08370761 2.65825622 73.91043109 2.62875474 82.73715829 C2.58104505 97.05645097 2.53779006 111.37575354 2.49731445 125.69506836 C2.45797668 139.60848764 2.4165546 153.52189814 2.37231445 167.43530273 C2.36959018 168.29230774 2.36686591 169.14931275 2.36405908 170.03228761 C2.35037989 174.33144553 2.33665956 178.63060332 2.32291877 182.92976105 C2.20890097 218.6198225 2.10210338 254.30990255 2 290 C3.32 290.66 4.64 291.32 6 292 C4.02 292 2.04 292 0 292 C0 195.64 0 99.28 0 0 Z " fill="#146282" transform="translate(355,103)"/>
<path d="M0 0 C1.99954746 -0.04254356 4.00041636 -0.04080783 6 0 C7.9184645 1.9184645 7.1229388 4.7790463 7.12908131 7.33210951 C7.12616847 8.25135142 7.12325563 9.17059332 7.12025452 10.11769104 C7.12110894 11.08634737 7.12196337 12.05500371 7.12284368 13.05301327 C7.12450143 16.32515544 7.11897231 19.59724725 7.11352539 22.86938477 C7.11324356 25.20447793 7.11340118 27.53957119 7.1139679 29.87466431 C7.11425602 36.23598016 7.10835694 42.59727734 7.10139394 48.95858884 C7.09579343 54.92639161 7.09477212 60.89419362 7.09374207 66.86199867 C7.09155124 78.68559054 7.08489032 90.50917554 7.07543945 102.33276367 C7.06626613 113.82104457 7.05918491 125.3093236 7.05493164 136.79760742 C7.05466892 137.50526265 7.05440619 138.21291788 7.05413551 138.94201721 C7.05283051 142.49197145 7.05156679 146.0419257 7.05032361 149.59187996 C7.03995003 179.06125775 7.02225676 208.5306288 7 238 C6.01 238 5.02 238 4 238 C4 159.79 4 81.58 4 1 C2.68 0.67 1.36 0.34 0 0 Z " fill="#CCEEF8" transform="translate(18,148)"/>
<path d="M0 0 C11.6827136 -0.04629062 23.36540547 -0.08185254 35.04819202 -0.10362434 C40.47267198 -0.11407242 45.8970893 -0.1282503 51.3215332 -0.15087891 C56.5540243 -0.17257077 61.78645507 -0.18456091 67.01898766 -0.18975449 C69.01772703 -0.19345682 71.01646301 -0.20068632 73.01517677 -0.21146011 C75.80942612 -0.2259264 78.60342446 -0.22797998 81.39770508 -0.22705078 C82.64387604 -0.23783661 82.64387604 -0.23783661 83.91522217 -0.24884033 C87.80308889 -0.23480165 89.68908501 -0.20727666 93 2 C92.67 3.98 92.34 5.96 92 8 C89.36 8.66 86.72 9.32 84 10 C84.00222061 11.16981415 84.00444122 12.3396283 84.00672913 13.54489136 C84.03499167 28.98825233 84.05209655 44.43161699 84.0625 59.875 C84.06335602 61.13644962 84.06421204 62.39789925 84.06509399 63.69757462 C84.09087229 106.86311596 83.87995005 150.02371536 83.5 193.1875 C83.49402628 193.86750659 83.48805257 194.54751318 83.48189783 195.24812603 C83.33017938 212.49883603 83.1697618 229.74945807 83 247 C82.67 247 82.34 247 82 247 C81.95441135 216.84165275 81.91899955 186.68330668 81.89786934 156.5249326 C81.89536782 152.96746803 81.89277918 149.41000353 81.89013672 145.85253906 C81.8896121 145.14428798 81.88908748 144.4360369 81.88854696 143.70632367 C81.87983551 132.22634648 81.86406149 120.74638924 81.84569441 109.2664239 C81.82701589 97.4939463 81.81588763 85.72147917 81.81182301 73.94898736 C81.80920891 67.33360292 81.80303793 60.71826379 81.78853989 54.10289383 C81.77501838 47.88303141 81.7707663 41.66323319 81.77378464 35.44335747 C81.77323203 33.15436263 81.7692224 30.86536576 81.76158905 28.57638359 C81.75171274 25.46349063 81.7540042 22.35084361 81.75949097 19.23794556 C81.75366528 18.32161649 81.7478396 17.40528743 81.74183738 16.46119082 C81.77175758 10.22824242 81.77175758 10.22824242 84 8 C86.625 7.875 86.625 7.875 89 8 C89 5.69 89 3.38 89 1 C59.63 1 30.26 1 0 1 C0 0.67 0 0.34 0 0 Z " fill="#CFF0F8" transform="translate(231,139)"/>
<path d="M0 0 C2.77041721 2.61823329 4.13506034 5.0613523 5.6875 8.5625 C6.12449219 9.53316406 6.56148438 10.50382813 7.01171875 11.50390625 C8 14 8 14 8 16 C7.01 16.33 6.02 16.66 5 17 C2.52906613 20.70640081 2.75311807 22.54050019 2.75949097 26.96647644 C2.75778212 27.67957783 2.75607327 28.39267921 2.75431263 29.12738973 C2.75101189 31.52277206 2.7620309 33.91787579 2.77294922 36.31323242 C2.77351321 38.02793878 2.77319702 39.74264561 2.77206421 41.45735168 C2.77148921 46.11822453 2.78326729 50.77899491 2.79721212 55.43984389 C2.80969501 60.30854892 2.81088805 65.17725617 2.81326294 70.04597473 C2.8194849 79.26821542 2.8359054 88.49040882 2.85596192 97.71262866 C2.87829866 108.21067809 2.88930875 118.70872974 2.89935279 129.206797 C2.920271 150.80455775 2.95546088 172.4022759 3 194 C4.65 194.66 6.3 195.32 8 196 C8 196.66 8 197.32 8 198 C2.25 197.25 2.25 197.25 0 195 C-0.19315686 192.41656347 -0.26050477 189.94077939 -0.24050903 187.35653687 C-0.24221788 186.55853531 -0.24392673 185.76053375 -0.24568737 184.93835032 C-0.24899605 182.2496633 -0.23795602 179.56122283 -0.22705078 176.87255859 C-0.22648696 174.95110581 -0.22680265 173.0296526 -0.22793579 171.10820007 C-0.22851146 165.87910898 -0.21672261 160.65010896 -0.20278788 155.4210391 C-0.19031609 149.96108679 -0.18911283 144.50113257 -0.18673706 139.04116821 C-0.18051182 128.69621055 -0.16408692 118.35129498 -0.14403808 108.00635588 C-0.12171151 96.23144872 -0.11069382 84.45653959 -0.10064721 72.68161654 C-0.07972157 48.45438766 -0.04452537 24.22719619 0 0 Z " fill="#B3DCE9" transform="translate(69,191)"/>
<path d="M0 0 C28.71 0 57.42 0 87 0 C87 1.98 87 3.96 87 6 C86.01 5.67 85.02 5.34 84 5 C84.66 5 85.32 5 86 5 C86 3.68 86 2.36 86 1 C57.95 1 29.9 1 1 1 C1 2.32 1 3.64 1 5 C1.78375 5.12375 2.5675 5.2475 3.375 5.375 C6 6 6 6 8 8 C8.24839699 9.79369605 8.24839699 9.79369605 8.24609566 12.00988197 C8.25007775 12.8533624 8.25405985 13.69684283 8.25816262 14.56588328 C8.25233693 15.49777614 8.24651125 16.42966899 8.24050903 17.38980103 C8.24221788 18.37564599 8.24392673 19.36149096 8.24568737 20.37721002 C8.24899825 23.70157838 8.2379523 27.0257477 8.22705078 30.35009766 C8.22648701 32.72474666 8.22680255 35.099396 8.22793579 37.4740448 C8.22845177 43.26640912 8.21975576 49.05870758 8.20706047 54.85105683 C8.1927844 61.58928788 8.18977198 68.32750945 8.18748413 75.0657535 C8.18310387 87.08291211 8.16978582 99.10004362 8.15087891 111.1171875 C8.13252865 122.79264185 8.11836797 134.46808884 8.10986328 146.14355469 C8.10933783 146.86289517 8.10881239 147.58223566 8.10827102 148.32337435 C8.105661 151.9319942 8.10313357 155.54061411 8.10064721 159.14923406 C8.07990442 189.09950837 8.04452153 219.04975102 8 249 C3.25 250 3.25 250 1 250 C1.33 250.99 1.66 251.98 2 253 C20.48 253.33 38.96 253.66 58 254 C58 252.35 58 250.7 58 249 C58.33 249 58.66 249 59 249 C59 250.98 59 252.96 59 255 C39.2 255 19.4 255 -1 255 C-1 253.02 -1 251.04 -1 249 C1.31 248.01 3.62 247.02 6 246 C6 167.79 6 89.58 6 9 C4.02 8.01 2.04 7.02 0 6 C0 4.02 0 2.04 0 0 Z " fill="#16627F" transform="translate(18,140)"/>
<path d="M0 0 C0.33 0 0.66 0 1 0 C1 64.35 1 128.7 1 195 C-5 198 -5 198 -7 198 C-7 199.98 -7 201.96 -7 204 C-7.66 203.67 -8.32 203.34 -9 203 C-9.08226668 199.95613276 -8.97608217 197.92824652 -8 195 C-5.69 195 -3.38 195 -1 195 C-1.33 134.28 -1.66 73.56 -2 11 C-2.99 11.495 -2.99 11.495 -4 12 C-3.33501617 7.61110675 -1.81242323 4.0188515 0 0 Z " fill="#CCEDF8" transform="translate(268,191)"/>
<path d="M0 0 C0.33 0 0.66 0 1 0 C1.33 78.21 1.66 156.42 2 237 C4.31 237.66 6.62 238.32 9 239 C9 241.31 9 243.62 9 246 C-10.8 246 -30.6 246 -51 246 C-51 244.02 -51 242.04 -51 240 C-49.68 240.33 -48.36 240.66 -47 241 C-47 241.66 -47 242.32 -47 243 C-28.85 243.66 -10.7 244.32 8 245 C8 243.68 8 242.36 8 241 C6.35 241.33 4.7 241.66 3 242 C0.31278504 239.44415533 -0.2295775 237.36147569 -0.36914349 233.79087448 C-0.38176794 232.02181968 -0.3776694 230.25260061 -0.36076355 228.48358154 C-0.36332682 227.50827838 -0.3658901 226.53297522 -0.36853105 225.52811742 C-0.37348295 222.25132558 -0.35695253 218.97499177 -0.34057617 215.69824219 C-0.33973021 213.35285452 -0.34020445 211.00746606 -0.34190369 208.66207886 C-0.34276625 202.28641674 -0.32509814 195.91092313 -0.30418181 189.53530025 C-0.28735463 183.54996389 -0.28431402 177.56462745 -0.2812262 171.57927194 C-0.27466018 159.72404007 -0.25469498 147.86887012 -0.22631836 136.01367188 C-0.19878166 124.49739899 -0.17754618 112.98114291 -0.16479492 101.46484375 C-0.16400675 100.7549897 -0.16321858 100.04513564 -0.16240653 99.31377086 C-0.15849142 95.75264455 -0.15470029 92.19151811 -0.15097082 88.6303916 C-0.11987025 59.08688776 -0.06680738 29.54344497 0 0 Z " fill="#0F6488" transform="translate(795,149)"/>
<path d="M0 0 C0.99 0.33 1.98 0.66 3 1 C3 56.77 3 112.54 3 170 C2.34 170.33 1.68 170.66 1 171 C0.67 114.57 0.34 58.14 0 0 Z " fill="#B1D8E7" transform="translate(468,159)"/>
<path d="M0 0 C0.33 0 0.66 0 1 0 C1 65.01 1 130.02 1 197 C-1.97 197.99 -1.97 197.99 -5 199 C-5.33 199.99 -5.66 200.98 -6 202 C12.48 202 30.96 202 50 202 C49.0022242 199.00667261 48.2477975 198.05233685 46 196 C47.98 196.33 49.96 196.66 52 197 C52 198.98 52 200.96 52 203 C32.2 203 12.4 203 -8 203 C-8 201.02 -8 199.04 -8 197 C-5.69 196.01 -3.38 195.02 -1 194 C-0.67 129.98 -0.34 65.96 0 0 Z " fill="#186381" transform="translate(269,192)"/>
<path d="M0 0 C0.33 0 0.66 0 1 0 C1 64.02 1 128.04 1 194 C-0.98 194.99 -0.98 194.99 -3 196 C-3 195.01 -3 194.02 -3 193 C-2.01 193 -1.02 193 0 193 C-0.33 134.26 -0.66 75.52 -1 15 C-5.23578792 17.10390941 -5.23578792 17.10390941 -7 21 C-7.66 21 -8.32 21 -9 21 C-7.50640515 16.15713185 -5.54966433 11.68649104 -3.375 7.125 C-2.88773438 6.09246094 -2.88773438 6.09246094 -2.390625 5.0390625 C-1.59676528 3.35794781 -0.79880442 1.67877079 0 0 Z " fill="#E1FDFE" transform="translate(751,192)"/>
<path d="M0 0 C3.375 4.5 3.375 4.5 4 8 C3.34 7.67 2.68 7.34 2 7 C2 69.04 2 131.08 2 195 C1.34 195 0.68 195 0 195 C0 130.65 0 66.3 0 0 Z " fill="#DCFDFE" transform="translate(553,192)"/>
<path d="M0 0 C29.7 0 59.4 0 90 0 C90 1.98 90 3.96 90 6 C88.68 6.33 87.36 6.66 86 7 C86.99 5.02 87.98 3.04 89 1 C59.96 1 30.92 1 1 1 C1.33 2.32 1.66 3.64 2 5 C4.97 5.495 4.97 5.495 8 6 C8.33 7.32 8.66 8.64 9 10 C6.03 9.01 3.06 8.02 0 7 C0 4.69 0 2.38 0 0 Z " fill="#1A6787" transform="translate(714,140)"/>
<path d="M0 0 C4.95 0 9.9 0 15 0 C15 0.33 15 0.66 15 1 C10.71 1 6.42 1 2 1 C2 3.64 2 6.28 2 9 C21.8 9.495 21.8 9.495 42 10 C42 7.03 42 4.06 42 1 C38.04 1 34.08 1 30 1 C30 0.67 30 0.34 30 0 C34.29 0 38.58 0 43 0 C43 3.63 43 7.26 43 11 C28.81 11 14.62 11 0 11 C0 7.37 0 3.74 0 0 Z " fill="#136082" transform="translate(1317,378)"/>
<path d="M0 0 C14.19 0 28.38 0 43 0 C43 3.63 43 7.26 43 11 C38.38 11 33.76 11 29 11 C29 10.67 29 10.34 29 10 C33.29 10 37.58 10 42 10 C42 7.03 42 4.06 42 1 C28.47 1 14.94 1 1 1 C1.2 7.4 1.2 7.4 3 9 C5.01594582 9.23427778 7.038474 9.41336124 9.0625 9.5625 C10.16722656 9.64628906 11.27195312 9.73007812 12.41015625 9.81640625 C13.69212891 9.90728516 13.69212891 9.90728516 15 10 C15 10.33 15 10.66 15 11 C10.05 11 5.1 11 0 11 C0 7.37 0 3.74 0 0 Z " fill="#145F80" transform="translate(1317,280)"/>
<path d="M0 0 C0.99 0.495 0.99 0.495 2 1 C2 1.66 2 2.32 2 3 C4.97 3.495 4.97 3.495 8 4 C8 4.66 8 5.32 8 6 C9.65 6 11.3 6 13 6 C12.39301257 10.12751449 10.96189209 13.3321148 9 17 C8.34 17 7.68 17 7 17 C5.82866942 14.54379149 4.66278278 12.08525083 3.5 9.625 C3.16613281 8.92632812 2.83226562 8.22765625 2.48828125 7.5078125 C0 2.2265625 0 2.2265625 0 0 Z " fill="#0B6991" transform="translate(161,390)"/>
<path d="M0 0 C0.33 0 0.66 0 1 0 C1 15.51 1 31.02 1 47 C-2.49847121 40.00305758 -2.18618485 33.57632251 -2.18530273 25.89306641 C-2.18747852 23.77095152 -2.20562312 21.64936605 -2.22460938 19.52734375 C-2.2519393 12.731502 -2.12966794 6.49843341 0 0 Z " fill="#BBD9E5" transform="translate(1020,311)"/>
<path d="M0 0 C9.05776647 -0.04634069 18.11549213 -0.08187801 27.17335129 -0.10362434 C31.379282 -0.11406149 35.5851316 -0.12821943 39.79101562 -0.15087891 C43.84993538 -0.17260975 47.90877711 -0.18456915 51.96775055 -0.18975449 C53.51630125 -0.19344981 55.06484768 -0.20066583 56.61336517 -0.21146011 C58.78237638 -0.22597835 60.95106521 -0.22797782 63.12011719 -0.22705078 C64.35477722 -0.231492 65.58943726 -0.23593323 66.86151123 -0.24050903 C69.83878492 -0.01235425 71.50183979 0.43140246 74 2 C73.11716843 1.99555878 72.23433685 1.99111755 71.32475281 1.98654175 C63.01107754 1.94649292 54.69743461 1.9160298 46.38368511 1.89637566 C42.10934527 1.88593165 37.83508504 1.87176123 33.56079102 1.84912109 C29.43703744 1.82741466 25.31336051 1.81543602 21.18955421 1.81024551 C19.61505743 1.8065458 18.04056491 1.7993213 16.46610069 1.78853989 C14.26335916 1.77405406 12.06093568 1.77202082 9.8581543 1.77294922 C8.60350876 1.768508 7.34886322 1.76406677 6.05619812 1.75949097 C2.8260557 1.76372519 2.8260557 1.76372519 0 4 C0 2.68 0 1.36 0 0 Z " fill="#186789" transform="translate(356,103)"/>
<path d="M0 0 C-5.70219078 5.70219078 -16.00869019 5.28664591 -23.625 5.3125 C-24.4190625 5.31781738 -25.213125 5.32313477 -26.03125 5.32861328 C-31.74178037 5.25821963 -31.74178037 5.25821963 -34 3 C-33.16976318 2.97812622 -33.16976318 2.97812622 -32.32275391 2.95581055 C-18.83622474 2.80422028 -18.83622474 2.80422028 -5.875 -0.4765625 C-3.58659623 -1.11540855 -2.22427963 -0.74473648 0 0 Z " fill="#E8FBFE" transform="translate(875,388)"/>
<path d="M0 0 C4.75 0.75 4.75 0.75 7 3 C6.65653468 7.74686688 4.37015348 12.03004606 2.4375 16.3125 C2.10814453 17.05306641 1.77878906 17.79363281 1.43945312 18.55664062 C0.63082877 20.37311562 -0.18397116 22.18683931 -1 24 C-2.19894445 20.40316664 -1.74361288 19.89571431 -0.125 16.625 C1.39553541 13.41090274 2.54065597 10.55991621 3 7 C1.35 7.33 -0.3 7.66 -2 8 C-2 6.68 -2 5.36 -2 4 C-0.35 4 1.3 4 3 4 C3 3.34 3 2.68 3 2 C2.01 1.67 1.02 1.34 0 1 C0 0.67 0 0.34 0 0 Z " fill="#E0F3F8" transform="translate(716,147)"/>
<path d="M0 0 C0.66 0 1.32 0 2 0 C2 0.99 2 1.98 2 3 C2.66 3 3.32 3 4 3 C3.34 5.64 2.68 8.28 2 11 C1.34 11 0.68 11 0 11 C-0.33 11.66 -0.66 12.32 -1 13 C-2.70630634 11.51625536 -3.90492256 10.17232786 -5 8.1875 C-5 4.43635612 -2.5037048 2.5619305 0 0 Z " fill="#016693" transform="translate(822,366)"/>
<path d="M0 0 C0.33 0.66 0.66 1.32 1 2 C-1.8578464 6.2406753 -3.5939909 8.25272149 -8.6875 9.3125 C-9.83798828 9.49232422 -9.83798828 9.49232422 -11.01171875 9.67578125 C-13.06750967 9.90982338 -13.06750967 9.90982338 -15 11 C-16.97724061 11.09672832 -18.9579006 11.12979903 -20.9375 11.125 C-21.99839844 11.12757813 -23.05929687 11.13015625 -24.15234375 11.1328125 C-27 11 -27 11 -30 10 C-29.67 9.34 -29.34 8.68 -29 8 C-28.01 8.03480469 -27.02 8.06960938 -26 8.10546875 C-15.31589028 8.3719965 -8.10262006 7.49492355 0 0 Z " fill="#1A6687" transform="translate(1169,370)"/>
<path d="M0 0 C5.18272328 3.31118431 7.52924414 7.14069842 9 13 C9.76446929 21.40066812 9.84962601 29.30074798 6 37 C5.67 37 5.34 37 5 37 C5 35.35 5 33.7 5 32 C5.66 32 6.32 32 7 32 C7.02690104 29.20826945 7.04679053 26.41679652 7.0625 23.625 C7.07087891 22.8309375 7.07925781 22.036875 7.08789062 21.21875 C7.23040151 16.97607778 7.23040151 16.97607778 6 13 C5.01 13.495 5.01 13.495 4 14 C4.0825 12.948125 4.165 11.89625 4.25 10.8125 C3.96197608 6.4201352 2.897453 5.16908922 0 2 C0 1.34 0 0.68 0 0 Z " fill="#136589" transform="translate(880,337)"/>
<path d="M0 0 C0 0.66 0 1.32 0 2 C-0.66 2 -1.32 2 -2 2 C-2.33 2.99 -2.66 3.98 -3 5 C-3.66 5 -4.32 5 -5 5 C-5.79356801 6.74671588 -5.79356801 6.74671588 -6 9 C-4.64599355 11.72981832 -4.64599355 11.72981832 -3 14 C-2.34 13.67 -1.68 13.34 -1 13 C-0.01 13.99 0.98 14.98 2 16 C1.34 16.33 0.68 16.66 0 17 C-0.33 17.66 -0.66 18.32 -1 19 C-2.53547475 17.59921602 -4.05305148 16.17879097 -5.5625 14.75 C-6.40941406 13.96109375 -7.25632812 13.1721875 -8.12890625 12.359375 C-10 10 -10 10 -9.9921875 7.90625 C-8.81024644 5.6354341 -7.53659854 4.37524537 -5.5625 2.75 C-4.94503906 2.22921875 -4.32757812 1.7084375 -3.69140625 1.171875 C-2 0 -2 0 0 0 Z " fill="#1B6B8F" transform="translate(824,364)"/>
<path d="M0 0 C2.71556689 2.71556689 3.7286202 4.1696263 5.1875 7.5625 C5.53167969 8.34753906 5.87585938 9.13257813 6.23046875 9.94140625 C7 12 7 12 7 14 C6.01 14.33 5.02 14.66 4 15 C3.01 15.99 2.02 16.98 1 18 C0.67 12.06 0.34 6.12 0 0 Z " fill="#EBF5F4" transform="translate(70,193)"/>
<path d="M0 0 C1.32 0.66 2.64 1.32 4 2 C3.3203125 3.921875 3.3203125 3.921875 2 6 C-0.3828125 6.828125 -0.3828125 6.828125 -3.125 7.25 C-4.03507812 7.39953125 -4.94515625 7.5490625 -5.8828125 7.703125 C-6.58148438 7.80109375 -7.28015625 7.8990625 -8 8 C-8 6.02 -8 4.04 -8 2 C-6.865625 1.855625 -5.73125 1.71125 -4.5625 1.5625 C-1.19222799 1.38828522 -1.19222799 1.38828522 0 0 Z " fill="#0E6C94" transform="translate(508,387)"/>
<path d="M0 0 C0.495 1.485 0.495 1.485 1 3 C-1.69969236 6.71207699 -5.72570613 7.23934411 -10 8 C-12.9038419 8.23440257 -15.77602534 8.23693523 -18.6875 8.1875 C-19.42033203 8.18685547 -20.15316406 8.18621094 -20.90820312 8.18554688 C-24.72257556 8.15459164 -28.29231331 7.91412394 -32 7 C-32 6.34 -32 5.68 -32 5 C-30.700625 5.2475 -30.700625 5.2475 -29.375 5.5 C-18.87952249 6.90507407 -10.04283107 7.00885289 -1 1 C-0.67 0.67 -0.34 0.34 0 0 Z " fill="#246D88" transform="translate(1067,372)"/>
<path d="M0 0 C3.30376326 3.30376326 5.08802502 6.48177222 7.25 10.5625 C7.81460937 11.59020508 7.81460937 11.59020508 8.390625 12.63867188 C9.32665021 14.39199851 10.17109121 16.19356493 11 18 C10.67 18.66 10.34 19.32 10 20 C3.21917808 14.57534247 3.21917808 14.57534247 1 11 C1 10.34 1 9.68 1 9 C1.66 9 2.32 9 3 9 C2.01 6.03 1.02 3.06 0 0 Z " fill="#156B8F" transform="translate(1484,284)"/>
<path d="M0 0 C0.99 0 1.98 0 3 0 C3 2.97 3 5.94 3 9 C1.68 9.33 0.36 9.66 -1 10 C-2.0409066 11.64142963 -3.04504326 13.30712215 -4 15 C-4.66 15 -5.32 15 -6 15 C-4.40109514 9.80355921 -2.25861997 4.93387858 0 0 Z " fill="#E2F1F6" transform="translate(748,198)"/>
<path d="M0 0 C6.75 0.75 6.75 0.75 9 3 C11.03060659 3.36894582 11.03060659 3.36894582 13.3515625 3.4140625 C14.20234375 3.45273437 15.053125 3.49140625 15.9296875 3.53125 C16.81914063 3.5621875 17.70859375 3.593125 18.625 3.625 C19.97078125 3.68300781 19.97078125 3.68300781 21.34375 3.7421875 C23.5622927 3.83659357 25.78082403 3.92216748 28 4 C25.21790857 6.78209143 23.45094645 6.33241023 19.5625 6.375 C12.83363466 6.29175631 6.97621104 5.17957636 1 2 C0.67 1.34 0.34 0.68 0 0 Z " fill="#D9F1F9" transform="translate(1030,373)"/>
<path d="M0 0 C0.33 0 0.66 0 1 0 C1.4832941 11.0978645 -0.23421468 20.57167142 -4 31 C-4.66 30.67 -5.32 30.34 -6 30 C-5.73445313 29.00742187 -5.46890625 28.01484375 -5.1953125 26.9921875 C-2.84651808 18.02325605 -1.09488715 9.22010232 0 0 Z " fill="#D0EAF4" transform="translate(468,334)"/>
<path d="M0 0 C0.66 0.33 1.32 0.66 2 1 C-1.96 9.91 -1.96 9.91 -6 19 C-8.8290723 16.1709277 -9.37611108 15.61855575 -10 12 C-9.34 12 -8.68 12 -8 12 C-7.34 12.66 -6.68 13.32 -6 14 C-5.01 10.7 -4.02 7.4 -3 4 C-2.34 4 -1.68 4 -1 4 C-0.67 2.68 -0.34 1.36 0 0 Z " fill="#DBF2F9" transform="translate(176,293)"/>
<path d="M0 0 C0.66 0 1.32 0 2 0 C-0.16163513 6.93998648 -2.8936214 13.43117569 -6 20 C-6.33 20 -6.66 20 -7 20 C-7.33 18.02 -7.66 16.04 -8 14 C-7.01 14 -6.02 14 -5 14 C-5.061875 13.071875 -5.12375 12.14375 -5.1875 11.1875 C-5 8 -5 8 -3.5 6.3125 C-3.005 5.879375 -2.51 5.44625 -2 5 C-2 4.01 -2 3.02 -2 2 C-1.34 2 -0.68 2 0 2 C0 1.34 0 0.68 0 0 Z " fill="#176B8D" transform="translate(235,258)"/>
<path d="M0 0 C0.66 0.33 1.32 0.66 2 1 C-2.455 11.395 -2.455 11.395 -7 22 C-8.50913248 17.47260257 -7.40131002 13.49308926 -6 9 C-4 6.6875 -4 6.6875 -2 5 C-0.74563813 2.36777038 -0.74563813 2.36777038 0 0 Z " fill="#D9F1F8" transform="translate(674,259)"/>
<path d="M0 0 C0.33 1.32 0.66 2.64 1 4 C0.38125 4.433125 -0.2375 4.86625 -0.875 5.3125 C-3.2197245 6.99740483 -3.2197245 6.99740483 -5 10 C-8.28976808 11.09658936 -9.71303767 10.79953138 -13 10 C-10.96678062 8.47394321 -8.93237612 6.94956438 -6.89453125 5.4296875 C-6.20746094 4.91664063 -5.52039062 4.40359375 -4.8125 3.875 C-4.11769531 3.35679687 -3.42289063 2.83859375 -2.70703125 2.3046875 C-1.06593783 1.11007661 -1.06593783 1.11007661 0 0 Z " fill="#DAF0F5" transform="translate(1179,379)"/>
<path d="M0 0 C1.67542976 0.28604898 3.34385343 0.61781233 5 1 C2.19195732 3.96404505 -0.18315774 6.44499019 -4 8 C-5.32 6.35 -6.64 4.7 -8 3 C-6.865625 2.690625 -5.73125 2.38125 -4.5625 2.0625 C-1.21224901 1.37075469 -1.21224901 1.37075469 0 0 Z " fill="#E8F3F5" transform="translate(1064,369)"/>
<path d="M0 0 C-0.33 1.32 -0.66 2.64 -1 4 C-2.98 4 -4.96 4 -7 4 C-6.67 4.99 -6.34 5.98 -6 7 C-2.7 7.33 0.6 7.66 4 8 C4 8.33 4 8.66 4 9 C-0.29 9 -4.58 9 -9 9 C-9 7.02 -9 5.04 -9 3 C-2.25 0 -2.25 0 0 0 Z " fill="#1D6986" transform="translate(26,386)"/>
<path d="M0 0 C3.15330554 0.60694155 5.18888867 1.6416665 7.75 3.5625 C8.67039062 4.24505859 8.67039062 4.24505859 9.609375 4.94140625 C10.29773437 5.46541016 10.29773437 5.46541016 11 6 C9.7508258 9.45925163 8.32472205 12.14693203 6 15 C6.58803797 11.97580475 7.22678118 8.98241547 8 6 C6.35 5.67 4.7 5.34 3 5 C3 4.01 3 3.02 3 2 C2.34 2 1.68 2 1 2 C0.67 2.99 0.34 3.98 0 5 C-0.33 4.01 -0.66 3.02 -1 2 C-0.67 1.34 -0.34 0.68 0 0 Z " fill="#236F8E" transform="translate(1075,360)"/>
<path d="M0 0 C2 2 2 2 2.1953125 5.9140625 C2.18200376 7.48449351 2.15813602 9.05486221 2.125 10.625 C2.11597656 11.42679687 2.10695313 12.22859375 2.09765625 13.0546875 C2.07406223 15.03658523 2.03819065 17.01832981 2 19 C1.01 19.33 0.02 19.66 -1 20 C-0.67 13.4 -0.34 6.8 0 0 Z " fill="#C4E5EF" transform="translate(889,350)"/>
<path d="M0 0 C0 0.66 0 1.32 0 2 C-0.99 2 -1.98 2 -3 2 C-3.66 3.65 -4.32 5.3 -5 7 C-5.99 6.67 -6.98 6.34 -8 6 C-8.804375 6.33 -9.60875 6.66 -10.4375 7 C-13.30275077 8.11814664 -14.16333181 7.86726161 -17 7 C-16.41992188 6.74605469 -15.83984375 6.49210937 -15.2421875 6.23046875 C-11.63656614 4.6418534 -8.07509379 3.03822957 -4.5625 1.25 C-2 0 -2 0 0 0 Z " fill="#DEF3F8" transform="translate(1288,334)"/>
<path d="M0 0 C7.62951555 -0.34855655 13.92444501 -0.0017506 21 3 C20.34 3.66 19.68 4.32 19 5 C18.67 4.67 18.34 4.34 18 4 C15.92382596 3.6246465 13.83843889 3.2996863 11.75 3 C7.80664062 2.42901584 3.89953374 1.82095447 0 1 C0 0.67 0 0.34 0 0 Z " fill="#C4E1EC" transform="translate(1041,290)"/>
<path d="M0 0 C3.09592835 3.5087188 4.74194623 6.49197399 6 11 C6.99 11 7.98 11 9 11 C9.625 12.8125 9.625 12.8125 10 15 C9.01 16.485 9.01 16.485 8 18 C6.6589995 15.5664433 5.32705144 13.12864699 4 10.6875 C3.6184375 9.99720703 3.236875 9.30691406 2.84375 8.59570312 C0 3.33984375 0 3.33984375 0 0 Z " fill="#196A8C" transform="translate(1267,360)"/>
<path d="M0 0 C0.33 0 0.66 0 1 0 C1.33 5.94 1.66 11.88 2 18 C4.31 18.66 6.62 19.32 9 20 C7.1875 21.5625 7.1875 21.5625 5 23 C2 22 2 22 0 19 C-0.22705078 16.9152832 -0.22705078 16.9152832 -0.1953125 14.55078125 C-0.18886719 13.70322266 -0.18242188 12.85566406 -0.17578125 11.98242188 C-0.15902344 11.10134766 -0.14226563 10.22027344 -0.125 9.3125 C-0.11597656 8.41982422 -0.10695313 7.52714844 -0.09765625 6.60742188 C-0.07409748 4.40467686 -0.04120329 2.20247412 0 0 Z " fill="#1B6C90" transform="translate(795,368)"/>
<path d="M0 0 C0.66 0 1.32 0 2 0 C2 0.99 2 1.98 2 3 C2.66 3 3.32 3 4 3 C7.26845713 7.90268569 8.27944109 12.13173703 8 18 C5.84575398 14.76863097 4.37764626 11.43389904 2.875 7.875 C2.59785156 7.22917969 2.32070313 6.58335937 2.03515625 5.91796875 C0 1.13585283 0 1.13585283 0 0 Z " fill="#DCF3F8" transform="translate(605,202)"/>
<path d="M0 0 C0 0.66 0 1.32 0 2 C0.66 2.33 1.32 2.66 2 3 C-3.625 8 -3.625 8 -7 8 C-7 7.34 -7 6.68 -7 6 C-6.01 6 -5.02 6 -4 6 C-4 5.34 -4 4.68 -4 4 C-4.66 3.67 -5.32 3.34 -6 3 C-4.60722783 0.21445565 -3.01148006 0 0 0 Z " fill="#E8F5FA" transform="translate(1166,369)"/>
<path d="M0 0 C0 0.33 0 0.66 0 1 C-0.95712891 1.09087891 -0.95712891 1.09087891 -1.93359375 1.18359375 C-2.75988281 1.26738281 -3.58617187 1.35117187 -4.4375 1.4375 C-5.67306641 1.55931641 -5.67306641 1.55931641 -6.93359375 1.68359375 C-8.98662025 1.78930815 -8.98662025 1.78930815 -10 3 C-11.84891946 3.23363881 -13.70488031 3.41303635 -15.5625 3.5625 C-17.08037109 3.68818359 -17.08037109 3.68818359 -18.62890625 3.81640625 C-19.41136719 3.87699219 -20.19382812 3.93757813 -21 4 C-20 2 -20 2 -17.25 0.875 C-11.64202665 -0.62986497 -5.75295051 -0.15571896 0 0 Z " fill="#BFDEEA" transform="translate(859,290)"/>
<path d="M0 0 C0.66 0.33 1.32 0.66 2 1 C1.35534798 5.33304076 -0.18925122 8.86672065 -2.0625 12.8125 C-2.61035156 13.97394531 -3.15820312 15.13539063 -3.72265625 16.33203125 C-4.14417969 17.21246094 -4.56570312 18.09289062 -5 19 C-6.09658936 15.71023192 -5.79953138 14.28696233 -5 11 C-4.34 11 -3.68 11 -3 11 C-1.41678933 5.52225234 -1.41678933 5.52225234 0 0 Z " fill="#DAF1F8" transform="translate(209,215)"/>
<path d="M0 0 C2.475 0.495 2.475 0.495 5 1 C7.11161731 10.41002278 7.11161731 10.41002278 8 15 C7.34 15 6.68 15 6 15 C4.02 10.05 2.04 5.1 0 0 Z " fill="#DFF5FA" transform="translate(592,172)"/>
<path d="M0 0 C0.66 0 1.32 0 2 0 C1.46541848 4.54394294 -0.39870347 7.29512312 -3 11 C-3.69429379 12.3191582 -4.37530495 13.64649406 -5 15 C-5.66 14.67 -6.32 14.34 -7 14 C-4.69 9.38 -2.38 4.76 0 0 Z " fill="#DEF2F8" transform="translate(178,389)"/>
<path d="M0 0 C0.33 0 0.66 0 1 0 C1.12117187 0.85464844 1.24234375 1.70929688 1.3671875 2.58984375 C1.53476562 3.69457031 1.70234375 4.79929687 1.875 5.9375 C2.03742187 7.03964844 2.19984375 8.14179688 2.3671875 9.27734375 C2.57601562 10.17582031 2.78484375 11.07429688 3 12 C3.66 12.33 4.32 12.66 5 13 C5 13.66 5 14.32 5 15 C5.99 15.33 6.98 15.66 8 16 C8.33 16.99 8.66 17.98 9 19 C5.87018088 18.66466224 4.99938841 17.99933599 2.8125 15.625 C0.23477464 11.89174258 -0.11998697 9.23899667 -0.0625 4.8125 C-0.05347656 3.91144531 -0.04445313 3.01039063 -0.03515625 2.08203125 C-0.02355469 1.39496094 -0.01195312 0.70789063 0 0 Z " fill="#D8F1F7" transform="translate(830,302)"/>
<path d="M0 0 C0.86065888 3.09319508 1.12400527 4.9345311 0 8 C-0.66 8.66 -1.32 9.32 -2 10 C-2.88778692 11.96488831 -2.88778692 11.96488831 -3.625 14.125 C-3.88539063 14.84945312 -4.14578125 15.57390625 -4.4140625 16.3203125 C-4.60742188 16.87460938 -4.80078125 17.42890625 -5 18 C-5.66 18 -6.32 18 -7 18 C-5.06375702 11.79522136 -2.74390859 5.89174281 0 0 Z " fill="#206E8F" transform="translate(694,217)"/>
<path d="M0 0 C0.66 0.66 1.32 1.32 2 2 C1.65561395 6.13263259 -0.06429969 9.38108204 -2 13 C-2.3449145 11.66961551 -2.67516582 10.33542939 -3 9 C-3.268125 8.175 -3.53625 7.35 -3.8125 6.5 C-4 4 -4 4 -2.0625 1.6875 C-1.381875 1.130625 -0.70125 0.57375 0 0 Z " fill="#126D8F" transform="translate(188,359)"/>
<path d="M0 0 C0.33 0 0.66 0 1 0 C1.40504471 4.54831461 0.10663029 7.31868008 -2 11.3125 C-2.556875 12.38113281 -3.11375 13.44976562 -3.6875 14.55078125 C-4.3371875 15.76314453 -4.3371875 15.76314453 -5 17 C-5.66 17 -6.32 17 -7 17 C-5.24009216 11.08030998 -2.60305395 5.58365008 0 0 Z " fill="#D7F1F7" transform="translate(208,322)"/>
<path d="M0 0 C0.66 0 1.32 0 2 0 C4.8202907 4.00438221 4.00863471 8.12336539 3.625 12.75 C3.56828125 13.54277344 3.5115625 14.33554687 3.453125 15.15234375 C3.31216305 17.10231735 3.1574288 19.05128671 3 21 C2.34 21 1.68 21 1 21 C1.01160156 19.90300781 1.02320313 18.80601562 1.03515625 17.67578125 C1.04453964 16.22135588 1.05363925 14.76692865 1.0625 13.3125 C1.07087891 12.59126953 1.07925781 11.87003906 1.08789062 11.12695312 C1.10543632 7.28444618 0.93524221 3.73360474 0 0 Z " fill="#DAF3F9" transform="translate(1291,299)"/>
<path d="M0 0 C0.66 0 1.32 0 2 0 C1.34 2.64 0.68 5.28 0 8 C-0.66 8 -1.32 8 -2 8 C-2.66 10.31 -3.32 12.62 -4 15 C-4.66 15 -5.32 15 -6 15 C-4.36041242 9.76727367 -2.61047965 4.84803364 0 0 Z " fill="#DFF5FA" transform="translate(217,303)"/>
<path d="M0 0 C0.99 0.33 1.98 0.66 3 1 C3 2.32 3 3.64 3 5 C4.65 4.01 6.3 3.02 8 2 C8 5 8 5 6 8 C6.33 8.99 6.66 9.98 7 11 C6.01 11.495 6.01 11.495 5 12 C3.35 8.04 1.7 4.08 0 0 Z " fill="#126B8E" transform="translate(126,314)"/>
<path d="M0 0 C0.99 0.66 1.98 1.32 3 2 C2.54965877 3.62723299 2.08944646 5.25173664 1.625 6.875 C1.36976563 7.77992188 1.11453125 8.68484375 0.8515625 9.6171875 C0 12 0 12 -2 14 C-2.05410687 12.22950311 -2.09284119 10.45853151 -2.125 8.6875 C-2.14820313 7.70136719 -2.17140625 6.71523438 -2.1953125 5.69921875 C-2 3 -2 3 0 0 Z " fill="#E1F2F8" transform="translate(180,278)"/>
<path d="M0 0 C0.66 0 1.32 0 2 0 C0.8905928 3.48670834 -0.26337666 6.77484237 -2 10 C-2.66 10 -3.32 10 -4 10 C-4.66 8.35 -5.32 6.7 -6 5 C-5.34 5 -4.68 5 -4 5 C-3.67 4.34 -3.34 3.68 -3 3 C-2.34 3.33 -1.68 3.66 -1 4 C-0.67 2.68 -0.34 1.36 0 0 Z " fill="#1D6C8F" transform="translate(172,397)"/>
<path d="M0 0 C0.33 0 0.66 0 1 0 C1.33 5.61 1.66 11.22 2 17 C4.475 17.99 4.475 17.99 7 19 C7 19.66 7 20.32 7 21 C1.125 20.125 1.125 20.125 0 19 C-0.08651611 17.58429877 -0.10704904 16.164405 -0.09765625 14.74609375 C-0.09443359 13.89208984 -0.09121094 13.03808594 -0.08789062 12.15820312 C-0.07951172 11.26037109 -0.07113281 10.36253906 -0.0625 9.4375 C-0.05798828 8.53580078 -0.05347656 7.63410156 -0.04882812 6.70507812 C-0.03700225 4.46998686 -0.0205222 2.23502563 0 0 Z " fill="#DAF3FA" transform="translate(70,368)"/>
<path d="M0 0 C0.33 0.66 0.66 1.32 1 2 C0.36328125 3.69921875 0.36328125 3.69921875 -0.6875 5.6875 C-1.05746094 6.39261719 -1.42742187 7.09773438 -1.80859375 7.82421875 C-3.49755243 10.90864493 -5.22805114 13.96237338 -7 17 C-7.74609375 15.421875 -7.74609375 15.421875 -8 13 C-6.77369903 10.59958109 -5.54429316 8.47881286 -4.0625 6.25 C-3.67642578 5.64800781 -3.29035156 5.04601562 -2.89257812 4.42578125 C-1.93954585 2.94328661 -0.97121988 1.47064367 0 0 Z " fill="#D6F0F8" transform="translate(1527,330)"/>
<path d="M0 0 C1.51173768 5.02112874 -0.12453889 8.32203288 -2.5 12.875 C-2.995 13.57625 -3.49 14.2775 -4 15 C-4.66 15 -5.32 15 -6 15 C-4.40109514 9.80355921 -2.25861997 4.93387858 0 0 Z " fill="#1A6E8F" transform="translate(684,240)"/>
<path d="M0 0 C0.66 0 1.32 0 2 0 C2.74304413 4.75548243 0.73243053 7.56068738 -1.7109375 11.42578125 C-2.13632812 11.94527344 -2.56171875 12.46476563 -3 13 C-3.66 13 -4.32 13 -5 13 C-4.54554036 11.58208592 -4.08625056 10.16571954 -3.625 8.75 C-3.24214844 7.56664062 -3.24214844 7.56664062 -2.8515625 6.359375 C-2.04826333 4.13372042 -1.10288338 2.09068328 0 0 Z " fill="#1C6D90" transform="translate(722,153)"/>
<path d="M0 0 C0.33 0.99 0.66 1.98 1 3 C-1.19096179 7.24498847 -4.85821452 8.96675986 -9 11 C-9.66 10.67 -10.32 10.34 -11 10 C-9.93458984 9.04287109 -9.93458984 9.04287109 -8.84765625 8.06640625 C-7.46900391 6.82697266 -7.46900391 6.82697266 -6.0625 5.5625 C-4.68771484 4.32693359 -4.68771484 4.32693359 -3.28515625 3.06640625 C-1.61665644 1.56046061 -1.61665644 1.56046061 0 0 Z " fill="#D6EEF5" transform="translate(1081,375)"/>
<path d="M0 0 C0.33 0.66 0.66 1.32 1 2 C-2.61522199 7.66384778 -2.61522199 7.66384778 -6.55859375 8.62109375 C-9.04869927 8.85067795 -11.49984363 8.99029065 -14 9 C-11 7 -11 7 -7.5625 5.625 C-4.19599888 4.089403 -2.38339963 2.76474357 0 0 Z " fill="#277293" transform="translate(1169,370)"/>
<path d="M0 0 C2.31962709 2.31962709 3.30985217 4.46509652 4.6875 7.4375 C5.14511719 8.40558594 5.60273437 9.37367188 6.07421875 10.37109375 C7 13 7 13 6 16 C5.67 15.34 5.34 14.68 5 14 C4.34 14 3.68 14 3 14 C1.79534844 9.34201396 0.71452588 4.76350585 0 0 Z " fill="#D5ECF5" transform="translate(106,271)"/>
<path d="M0 0 C-0.66 1.32 -1.32 2.64 -2 4 C-2.886875 3.979375 -3.77375 3.95875 -4.6875 3.9375 C-7.62169631 3.99286219 -10.15493696 4.3305734 -13 5 C-8.55011262 1.27171598 -5.82569178 -0.15745113 0 0 Z " fill="#207095" transform="translate(1038,280)"/>
<path d="M0 0 C0.66 0.33 1.32 0.66 2 1 C0.68 4.3 -0.64 7.6 -2 11 C-2.66 10.67 -3.32 10.34 -4 10 C-4.40729228 7.67843403 -4.74438677 5.3431213 -5 3 C-4.360625 2.87625 -3.72125 2.7525 -3.0625 2.625 C-2.0415625 2.315625 -2.0415625 2.315625 -1 2 C-0.67 1.34 -0.34 0.68 0 0 Z " fill="#E0F1F8" transform="translate(199,240)"/>
<path d="M0 0 C0.66 0.33 1.32 0.66 2 1 C1.66354211 4.14027363 0.94763914 5.05098295 -1.375 7.3125 C-2.674375 8.1478125 -2.674375 8.1478125 -4 9 C-4.99 8.67 -5.98 8.34 -7 8 C-4.69 5.36 -2.38 2.72 0 0 Z " fill="#DAEDF3" transform="translate(884,376)"/>
<path d="M0 0 C1.98 0.99 1.98 0.99 4 2 C4 2.99 4 3.98 4 5 C4.66 5 5.32 5 6 5 C6.33 7.64 6.66 10.28 7 13 C3.94616796 11.47308398 3.61913497 9.04783744 2.375 5.9375 C1.92898437 4.83277344 1.48296875 3.72804688 1.0234375 2.58984375 C0.68570313 1.73519531 0.34796875 0.88054687 0 0 Z " fill="#176C8E" transform="translate(103,264)"/>
<path d="M0 0 C-0.33 0.99 -0.66 1.98 -1 3 C-2.65 2.67 -4.3 2.34 -6 2 C-6 3.98 -6 5.96 -6 8 C-8 5 -8 5 -7.625 2.3125 C-7.41875 1.549375 -7.2125 0.78625 -7 0 C-3.86650268 -1.04449911 -3.01031744 -0.93423645 0 0 Z " fill="#DAEDF6" transform="translate(591,147)"/>
<path d="M0 0 C0.66 0.99 1.32 1.98 2 3 C0.02 6.96 -1.96 10.92 -4 15 C-4.66 14.67 -5.32 14.34 -6 14 C-4.02 9.38 -2.04 4.76 0 0 Z " fill="#D4EEF5" transform="translate(687,331)"/>
<path d="M0 0 C-0.95632999 1.29315061 -1.91513851 2.58446853 -2.875 3.875 C-3.40867187 4.59429687 -3.94234375 5.31359375 -4.4921875 6.0546875 C-6 8 -6 8 -8 10 C-8 8.35 -8 6.7 -8 5 C-7.34 5 -6.68 5 -6 5 C-6.33 3.35 -6.66 1.7 -7 0 C-2.25 -1.125 -2.25 -1.125 0 0 Z " fill="#DDF0F7" transform="translate(1019,290)"/>
<path d="M0 0 C0.66 0 1.32 0 2 0 C2 1.98 2 3.96 2 6 C2.66 6 3.32 6 4 6 C4.66 9.3 5.32 12.6 6 16 C3.39473112 13.39473112 2.65865776 10.82060766 1.375 7.375 C0.92898438 6.18648438 0.48296875 4.99796875 0.0234375 3.7734375 C-0.31429687 2.85820312 -0.65203125 1.94296875 -1 1 C-0.67 0.67 -0.34 0.34 0 0 Z " fill="#DDF2FA" transform="translate(627,250)"/>
<path d="M0 0 C0.66 0 1.32 0 2 0 C2.33 1.32 2.66 2.64 3 4 C4.32 4 5.64 4 7 4 C6.67 6.31 6.34 8.62 6 11 C5.34 11 4.68 11 4 11 C3.32880451 9.5437455 2.66318193 8.08492133 2 6.625 C1.62875 5.81289063 1.2575 5.00078125 0.875 4.1640625 C0 2 0 2 0 0 Z " fill="#DFF2F8" transform="translate(161,293)"/>
<path d="M0 0 C0.66 0.66 1.32 1.32 2 2 C0.35 5.3 -1.3 8.6 -3 12 C-4.08711385 7.6515446 -3.94219172 5.88438343 -2 2 C-1.34 2 -0.68 2 0 2 C0 1.34 0 0.68 0 0 Z " fill="#146B90" transform="translate(245,237)"/>
<path d="M0 0 C0.99521777 3.98087108 1.02370748 4.94833974 -0.1875 8.625 C-0.42855469 9.40101563 -0.66960937 10.17703125 -0.91796875 10.9765625 C-2 13 -2 13 -6 15 C-4.02 10.05 -2.04 5.1 0 0 Z " fill="#207090" transform="translate(238,154)"/>
<path d="M0 0 C7.42857143 1 7.42857143 1 11 2 C10.34 3.32 9.68 4.64 9 6 C7.68397477 5.38245741 6.37226444 4.75571258 5.0625 4.125 C4.33160156 3.77695312 3.60070312 3.42890625 2.84765625 3.0703125 C1 2 1 2 0 0 Z " fill="#186B90" transform="translate(827,329)"/>
<path d="M0 0 C0.93423645 3.01031744 1.04449911 3.86650268 0 7 C-0.03874921 8.66621616 -0.0450286 10.33394172 0 12 C-0.99 12 -1.98 12 -3 12 C-4.21386936 8.35839192 -3.6674695 7.66834531 -2.0625 4.3125 C-1.49208984 3.10013672 -1.49208984 3.10013672 -0.91015625 1.86328125 C-0.60980469 1.24839844 -0.30945313 0.63351562 0 0 Z " fill="#E0F4FA" transform="translate(702,299)"/>
<path d="M0 0 C3.34905453 3.34905453 3.89470285 5.49378854 5 10 C3.68 9.67 2.36 9.34 1 9 C0.67 6.03 0.34 3.06 0 0 Z " fill="#D9EFF7" transform="translate(70,193)"/>
<path d="M0 0 C0.66 0 1.32 0 2 0 C1.54917531 1.46067199 1.08906463 2.91848032 0.625 4.375 C0.36976563 5.18710937 0.11453125 5.99921875 -0.1484375 6.8359375 C-1 9 -1 9 -3 11 C-4.0625 9.125 -4.0625 9.125 -5 7 C-4.67 6.34 -4.34 5.68 -4 5 C-3.01 5 -2.02 5 -1 5 C-0.67 3.35 -0.34 1.7 0 0 Z " fill="#1C6D8C" transform="translate(655,397)"/>
<path d="M0 0 C0.99 1.485 0.99 1.485 2 3 C2.66 2.67 3.32 2.34 4 2 C4.33 2.99 4.66 3.98 5 5 C4.01 6.485 4.01 6.485 3 8 C2.34 8 1.68 8 1 8 C0.67 9.32 0.34 10.64 0 12 C0 8.04 0 4.08 0 0 Z " fill="#D4E7EC" transform="translate(1458,280)"/>
<path d="M0 0 C0.66 1.32 1.32 2.64 2 4 C1.1015625 6.140625 1.1015625 6.140625 -0.375 8.25 C-0.85710937 8.95640625 -1.33921875 9.6628125 -1.8359375 10.390625 C-2.22007812 10.92171875 -2.60421875 11.4528125 -3 12 C-3.66 11.67 -4.32 11.34 -5 11 C-3.35 7.37 -1.7 3.74 0 0 Z " fill="#1D6E8E" transform="translate(210,219)"/>
<path d="M0 0 C1.1484375 1.671875 1.1484375 1.671875 2 4 C1.1015625 6.578125 1.1015625 6.578125 -0.375 9.25 C-1.09816406 10.58804688 -1.09816406 10.58804688 -1.8359375 11.953125 C-2.22007812 12.62859375 -2.60421875 13.3040625 -3 14 C-3.66 14 -4.32 14 -5 14 C-3.45730076 9.27934033 -1.92205381 4.58335908 0 0 Z " fill="#206E90" transform="translate(706,189)"/>
<path d="M0 0 C0.33 0 0.66 0 1 0 C1.33 1.98 1.66 3.96 2 6 C3.65 6.33 5.3 6.66 7 7 C6.67 7.66 6.34 8.32 6 9 C4.68 8.67 3.36 8.34 2 8 C1.67 8.66 1.34 9.32 1 10 C0.01 9.67 -0.98 9.34 -2 9 C-2 8.01 -2 7.02 -2 6 C-1.34 6 -0.68 6 0 6 C0 4.02 0 2.04 0 0 Z " fill="#E9F7FA" transform="translate(229,140)"/>
<path d="M0 0 C-3.2102122 3.2102122 -6.37460314 2.98974759 -10.8125 3.0625 C-11.864375 3.041875 -12.91625 3.02125 -14 3 C-14 2.67 -14 2.34 -14 2 C-12.42085985 1.46658816 -10.83645613 0.94874237 -9.25 0.4375 C-8.36828125 0.14746094 -7.4865625 -0.14257812 -6.578125 -0.44140625 C-3.92165684 -1.01697435 -2.52968894 -0.89248371 0 0 Z " fill="#D5ECF5" transform="translate(875,388)"/>
<path d="M0 0 C0 3 0 3 -1.125 5.125 C-3.60144222 7.60144222 -5.58060399 7.69605369 -9 8 C-6.14723863 5.06799526 -3.34920216 2.35684596 0 0 Z " fill="#DCF2F8" transform="translate(452,380)"/>
<path d="M0 0 C0.33 0.99 0.66 1.98 1 3 C-0.76956458 5.14210449 -1.87575652 5.96060573 -4.5625 6.8125 C-5.7690625 6.9053125 -5.7690625 6.9053125 -7 7 C-7.66 6.34 -8.32 5.68 -9 5 C-8.43410156 4.72285156 -7.86820313 4.44570313 -7.28515625 4.16015625 C-6.55167969 3.79792969 -5.81820313 3.43570312 -5.0625 3.0625 C-3.96615234 2.52302734 -3.96615234 2.52302734 -2.84765625 1.97265625 C-1.03750973 1.13628173 -1.03750973 1.13628173 0 0 Z " fill="#1C6E92" transform="translate(1067,372)"/>
<path d="M0 0 C1.65 0.33 3.3 0.66 5 1 C5 2.65 5 4.3 5 6 C4.01 6.495 4.01 6.495 3 7 C1.68 5.35 0.36 3.7 -1 2 C-0.67 1.34 -0.34 0.68 0 0 Z " fill="#146E98" transform="translate(1273,292)"/>
<path d="M0 0 C4.04420651 1.77945087 7.46078487 4.39529673 11 7 C10.01 7.33 9.02 7.66 8 8 C6.28724465 6.72641268 4.62332967 5.38576923 3 4 C1.68861096 3.29114106 0.36222983 2.60543548 -1 2 C-0.67 1.34 -0.34 0.68 0 0 Z " fill="#DBF3F9" transform="translate(817,378)"/>
<path d="M0 0 C0.66 0.33 1.32 0.66 2 1 C1.19185349 2.33597652 0.37836819 3.668725 -0.4375 5 C-0.88996094 5.7425 -1.34242187 6.485 -1.80859375 7.25 C-2.20175781 7.8275 -2.59492187 8.405 -3 9 C-3.33 9 -3.66 9 -4 9 C-4 7.02 -4 5.04 -4 3 C-2.68 2.67 -1.36 2.34 0 2 C0 1.34 0 0.68 0 0 Z " fill="#E0F3F8" transform="translate(1073,361)"/>
<path d="M0 0 C1.3778771 3.13153887 0.90076044 4.28779473 -0.25 7.625 C-2 11 -2 11 -5 13 C-3.58192622 8.52761347 -1.88695626 4.28853694 0 0 Z " fill="#D5EFF5" transform="translate(737,222)"/>
<path d="M0 0 C5 7.5 5 7.5 5 11 C4.01 11.33 3.02 11.66 2 12 C0.86235649 7.73383684 0 4.43513689 0 0 Z " fill="#D6F0F7" transform="translate(162,394)"/>
<path d="M0 0 C2.97 0.495 2.97 0.495 6 1 C3 3 3 3 1 3 C1 4.98 1 6.96 1 9 C0.34 8.67 -0.32 8.34 -1 8 C-1.08226668 4.95613276 -0.97608217 2.92824652 0 0 Z " fill="#E1F5F9" transform="translate(260,386)"/>
<path d="M0 0 C1.875 0.25 1.875 0.25 4 1 C5.25 3.0625 5.25 3.0625 6 5 C5.01 4.67 4.02 4.34 3 4 C0.85744207 4.38932856 0.85744207 4.38932856 -1 5 C-1 2 -1 2 0 0 Z " fill="#0A628A" transform="translate(1073,288)"/>
<path d="M0 0 C0.66 0 1.32 0 2 0 C2 0.99 2 1.98 2 3 C2.66 3 3.32 3 4 3 C5.25664978 5.90600261 6 7.79604584 6 11 C5.34 11 4.68 11 4 11 C3.32880451 9.5437455 2.66318193 8.08492133 2 6.625 C1.62875 5.81289062 1.2575 5.00078125 0.875 4.1640625 C0 2 0 2 0 0 Z " fill="#D5F1F7" transform="translate(105,163)"/>
<path d="M0 0 C3.0916909 2.52956528 3.90931332 5.22454612 5 9 C2 8 2 8 0 5 C-0.125 2.3125 -0.125 2.3125 0 0 Z " fill="#DFF4F8" transform="translate(141,350)"/>
<path d="M0 0 C1.66832577 2.50248865 2.62381674 4.41149187 3.625 7.1875 C4.01558594 8.26064453 4.01558594 8.26064453 4.4140625 9.35546875 C4.60742188 9.89816406 4.80078125 10.44085938 5 11 C2.525 10.01 2.525 10.01 0 9 C0 6.03 0 3.06 0 0 Z " fill="#206F93" transform="translate(164,301)"/>
<path d="M0 0 C0.33 0.66 0.66 1.32 1 2 C1.66 2 2.32 2 3 2 C3 2.66 3 3.32 3 4 C1.03852126 5.38938077 -0.96166576 6.7260411 -3 8 C-2.45276317 4.62537285 -1.9451 2.91765 0 0 Z " fill="#E4F7FD" transform="translate(1022,281)"/>
<path d="M0 0 C1.85625 -0.061875 1.85625 -0.061875 3.75 -0.125 C4.79414062 -0.15980469 4.79414062 -0.15980469 5.859375 -0.1953125 C8 0 8 0 12 2 C8.37 2.33 4.74 2.66 1 3 C0.67 2.01 0.34 1.02 0 0 Z " fill="#13668C" transform="translate(1264,281)"/>
<path d="M0 0 C4.455 1.98 4.455 1.98 9 4 C5.16380575 4.95904856 3.67568464 4.91892116 0 4 C0 2.68 0 1.36 0 0 Z " fill="#16698E" transform="translate(832,373)"/>
<path d="M0 0 C1.5625 1.8125 1.5625 1.8125 3 4 C2.67 4.99 2.34 5.98 2 7 C1.01 7 0.02 7 -1 7 C-1.625 5.1875 -1.625 5.1875 -2 3 C-1.34 2.01 -0.68 1.02 0 0 Z " fill="#1A7099" transform="translate(1275,349)"/>
<path d="M0 0 C3.14952839 0.6998952 6.0652503 1.65160149 9 3 C9.33 3.66 9.66 4.32 10 5 C6.37 4.01 2.74 3.02 -1 2 C-0.67 1.34 -0.34 0.68 0 0 Z " fill="#287493" transform="translate(860,289)"/>
<path d="M0 0 C0.95465783 2.16967689 1.14401212 3.56328793 0.3984375 5.82421875 C-0.35870385 7.5684743 -1.17609198 9.28627131 -2 11 C-2.66 11 -3.32 11 -4 11 C-2.7874262 7.27566618 -1.49140021 3.62197194 0 0 Z " fill="#D5EEF6" transform="translate(709,283)"/>
<path d="M0 0 C0.66 0 1.32 0 2 0 C1.125 7.75 1.125 7.75 0 10 C-0.66 10 -1.32 10 -2 10 C-1.34 6.7 -0.68 3.4 0 0 Z " fill="#D6F3F7" transform="translate(237,149)"/>
<path d="M0 0 C2.22825644 2.22825644 2.69239369 3.65761628 3.625 6.625 C4.01558594 7.85089844 4.01558594 7.85089844 4.4140625 9.1015625 C4.60742188 9.72804688 4.80078125 10.35453125 5 11 C4.01 10.67 3.02 10.34 2 10 C0.47839986 6.3962102 0 3.94779314 0 0 Z " fill="#D2EDF6" transform="translate(121,304)"/>
<path d="M0 0 C1.66832577 2.50248865 2.62381674 4.41149187 3.625 7.1875 C4.01558594 8.26064453 4.01558594 8.26064453 4.4140625 9.35546875 C4.60742188 9.89816406 4.80078125 10.44085938 5 11 C4.01 10.67 3.02 10.34 2 10 C0.47839986 6.3962102 0 3.94779314 0 0 Z " fill="#237190" transform="translate(636,275)"/>
<path d="M0 0 C0.33 0 0.66 0 1 0 C0.67 2.31 0.34 4.62 0 7 C-0.66 7 -1.32 7 -2 7 C-2 7.99 -2 8.98 -2 10 C-2.66 10 -3.32 10 -4 10 C-2.8905928 6.51329166 -1.73662334 3.22515763 0 0 Z " fill="#DAEDF6" transform="translate(229,276)"/>
<path d="M0 0 C0.66 0.33 1.32 0.66 2 1 C0.02 5.455 0.02 5.455 -2 10 C-2.66 10 -3.32 10 -4 10 C-2.99806563 6.20696275 -2.18975773 3.28463659 0 0 Z " fill="#D6EFF7" transform="translate(709,179)"/>
<path d="M0 0 C0.95465783 2.16967689 1.14401212 3.56328793 0.3984375 5.82421875 C-0.35870385 7.5684743 -1.17609198 9.28627131 -2 11 C-2.66 11 -3.32 11 -4 11 C-3.52269162 9.5410574 -3.04308958 8.08286504 -2.5625 6.625 C-2.29566406 5.81289062 -2.02882813 5.00078125 -1.75390625 4.1640625 C-1 2 -1 2 0 0 Z " fill="#22708E" transform="translate(714,171)"/>
<path d="M0 0 C0.99 0.33 1.98 0.66 3 1 C2.67 5.29 2.34 9.58 2 14 C1.67 14 1.34 14 1 14 C0.67 9.38 0.34 4.76 0 0 Z " fill="#CDEAF4" transform="translate(468,159)"/>
<path d="M0 0 C2.5654594 2.5654594 2.54046087 4.47686668 3 8 C2.01 8.66 1.02 9.32 0 10 C0 6.7 0 3.4 0 0 Z " fill="#ECFAFE" transform="translate(1361,281)"/>
<path d="M0 0 C0.66 0.99 1.32 1.98 2 3 C0.625 5.5 0.625 5.5 -1 8 C-1.66 8 -2.32 8 -3 8 C-1.125 2.25 -1.125 2.25 0 0 Z " fill="#D2EEF6" transform="translate(245,241)"/>
<path d="M0 0 C2.35448165 2.55068845 2.98327924 3.71017358 3.1875 7.25 C3.125625 8.1575 3.06375 9.065 3 10 C0.64551835 7.44931155 0.01672076 6.28982642 -0.1875 2.75 C-0.125625 1.8425 -0.06375 0.935 0 0 Z " fill="#136A8B" transform="translate(123,207)"/>
<path d="M0 0 C0.66 0.33 1.32 0.66 2 1 C1.1875 4.4375 1.1875 4.4375 0 8 C-0.99 8.33 -1.98 8.66 -3 9 C-2.01 6.03 -1.02 3.06 0 0 Z " fill="#1F708D" transform="translate(225,184)"/>
<path d="M0 0 C0.66 0 1.32 0 2 0 C2.99 2.97 3.98 5.94 5 9 C4.34 9 3.68 9 3 9 C3 8.01 3 7.02 3 6 C2.34 6 1.68 6 1 6 C0.67 4.02 0.34 2.04 0 0 Z " fill="#247194" transform="translate(586,161)"/>
<path d="M0 0 C-0.33 1.32 -0.66 2.64 -1 4 C-2.98 4.33 -4.96 4.66 -7 5 C-7 4.01 -7 3.02 -7 2 C-2.25 0 -2.25 0 0 0 Z " fill="#1B7290" transform="translate(270,386)"/>
<path d="M0 0 C3.37503669 1.1858237 5.64722731 2.27573689 8 5 C4.5625 4.1875 4.5625 4.1875 1 3 C0.67 2.01 0.34 1.02 0 0 Z " fill="#DBF3F9" transform="translate(864,343)"/>
<path d="M0 0 C3.73884332 2.65654657 5.64978174 4.58110387 7 9 C6.34 9 5.68 9 5 9 C3.7109375 7.5390625 3.7109375 7.5390625 2.375 5.625 C1.92898438 4.99851562 1.48296875 4.37203125 1.0234375 3.7265625 C0 2 0 2 0 0 Z " fill="#286E8C" transform="translate(880,337)"/>
<path d="M0 0 C1.65 0 3.3 0 5 0 C5 1.98 5 3.96 5 6 C4.01 6.495 4.01 6.495 3 7 C2.01 4.69 1.02 2.38 0 0 Z " fill="#186C8F" transform="translate(1497,332)"/>
<path d="M0 0 C0.66 0 1.32 0 2 0 C2.66 0.66 3.32 1.32 4 2 C4.66 2.33 5.32 2.66 6 3 C5.01 4.32 4.02 5.64 3 7 C2.01 4.69 1.02 2.38 0 0 Z " fill="#C8EDF4" transform="translate(166,305)"/>
<path d="M0 0 C2.0343459 1.41519715 2.90410393 2.54982123 3.421875 4.98046875 C3.66273952 6.98176954 3.83532741 8.9909944 4 11 C0 5 0 5 0 0 Z " fill="#D5F1F7" transform="translate(640,281)"/>
<path d="M0 0 C-2.75 1.625 -2.75 1.625 -6 3 C-8.375 2.1875 -8.375 2.1875 -10 1 C-3.71428571 -1.42857143 -3.71428571 -1.42857143 0 0 Z " fill="#2C7394" transform="translate(844,280)"/>
<path d="M0 0 C0.66 0 1.32 0 2 0 C1.46930939 3.82097239 0.50298434 6.06171403 -2 9 C-2.20140476 5.37471432 -1.85776765 3.13498292 0 0 Z " fill="#1E6C8F" transform="translate(239,249)"/>
<path d="M0 0 C0.33 1.32 0.66 2.64 1 4 C1.99 3.67 2.98 3.34 4 3 C3.67 5.31 3.34 7.62 3 10 C0.70366176 6.55549263 0.45983515 4.06187717 0 0 Z " fill="#DCF4F7" transform="translate(100,148)"/>
</svg>
