<svg width="28" height="26" viewBox="0 0 28 26" fill="none" xmlns="http://www.w3.org/2000/svg">
<path d="M25.4397 22.3215L14.5934 25.306C13.1099 25.7137 11.535 25.726 10.0445 25.3415L0.770422 22.9424C0.502077 22.8729 0.274137 22.7061 0.136747 22.4788C-0.000643725 22.2514 -0.0362308 21.9821 0.0378146 21.7301C0.11186 21.4781 0.289472 21.2641 0.531579 21.1351C0.773685 21.006 1.06045 20.9726 1.3288 21.0422L10.6029 23.4392C11.7171 23.7271 12.8948 23.7176 14.0035 23.4116L24.8499 20.4271C25.2103 20.3275 25.5167 20.1025 25.7065 19.798C25.8964 19.4936 25.9554 19.1326 25.8716 18.7887C25.7878 18.4447 25.5675 18.1438 25.2556 17.9471C24.9436 17.7505 24.5635 17.673 24.1928 17.7304L18.5881 18.5978C18.5629 18.6037 18.5419 18.5958 18.5188 18.5978C18.5167 18.6451 18.523 18.6904 18.5188 18.7358C18.4382 19.5567 18.0341 20.3198 17.3857 20.8755C16.7372 21.4312 15.8911 21.7395 15.0132 21.74C14.9565 21.74 14.8999 21.74 14.8453 21.736L10.3699 21.602C9.85468 21.5874 9.34087 21.544 8.8312 21.4719L7.10779 21.2294C6.8322 21.1907 6.58427 21.0508 6.41854 20.8405C6.25281 20.6301 6.18284 20.3666 6.22404 20.1078C6.26524 19.849 6.41422 19.6162 6.63822 19.4605C6.86222 19.3049 7.14288 19.2392 7.41846 19.2779L9.14187 19.5223C9.57083 19.5837 10.0033 19.6205 10.4371 19.6327L14.9251 19.7668C15.2938 19.7846 15.6557 19.6685 15.9356 19.4423C16.2155 19.2162 16.3918 18.8975 16.4281 18.5525C16.4648 18.2063 16.3557 17.8605 16.1243 17.5889C15.8928 17.3174 15.5572 17.1417 15.1896 17.0996L12.0303 16.7251C11.1674 16.623 10.356 16.2835 9.69815 15.7493C8.97275 15.1589 8.11393 14.7311 7.1866 14.4982C6.25926 14.2653 5.28768 14.2334 4.34529 14.4049L1.24693 14.9569C0.975886 15.0008 0.697305 14.9431 0.471128 14.7961C0.244951 14.6491 0.089253 14.4246 0.0375343 14.171C-0.0141844 13.9173 0.0422094 13.6547 0.194582 13.4396C0.346955 13.2246 0.583128 13.0743 0.852289 13.0211L3.95065 12.4692C5.20354 12.2416 6.49511 12.2842 7.72787 12.594C8.96063 12.9037 10.1023 13.4724 11.0668 14.2571C11.4127 14.5376 11.8392 14.7159 12.2927 14.7696L15.4498 15.1442C15.9805 15.2065 16.4889 15.3821 16.936 15.6575C17.3832 15.9329 17.7573 16.3008 18.0297 16.733C18.0983 16.6989 18.1709 16.6725 18.2459 16.6541L23.8528 15.7868C24.7499 15.6501 25.6688 15.8395 26.4225 16.3164C27.1763 16.7932 27.7083 17.5218 27.9105 18.3539C28.1126 19.186 27.9696 20.0591 27.5107 20.7958C27.0517 21.5324 26.3112 22.0793 25.4397 22.3215ZM7.90547 4.42251C7.90606 3.58211 8.16147 2.75925 8.64181 2.05016C9.12215 1.34107 9.80756 0.775084 10.6179 0.418391C11.4282 0.0616971 12.3299 -0.0709522 13.2176 0.0359581C14.1052 0.142868 14.9421 0.484918 15.6304 1.0221C16.3186 0.484918 17.1555 0.142868 18.0432 0.0359581C18.9308 -0.0709522 19.8325 0.0616971 20.6429 0.418391C21.4532 0.775084 22.1386 1.34107 22.6189 2.05016C23.0993 2.75925 23.3547 3.58211 23.3553 4.42251C23.2348 6.40128 22.4064 8.2839 21.0044 9.76542C19.6024 11.2469 17.7088 12.2406 15.6304 12.5855C13.5548 12.2354 11.6648 11.2405 10.2639 9.76046C8.8629 8.28041 8.0323 6.39917 7.90547 4.42251ZM10.0046 4.42645C10.1329 5.88179 10.7451 7.26244 11.7546 8.3732C12.7642 9.48395 14.12 10.2686 15.6304 10.6162C17.1411 10.2685 18.4971 9.48354 19.5067 8.3724C20.5163 7.26126 21.1283 5.88017 21.2561 4.42448C21.256 3.90213 21.0783 3.39346 20.7488 2.97259C20.4194 2.55171 19.9554 2.24062 19.4245 2.08464C18.8937 1.92866 18.3236 1.93594 17.7975 2.10542C17.2713 2.27491 16.8166 2.59773 16.4994 3.02686C16.3981 3.15338 16.2669 3.25605 16.116 3.32675C15.9652 3.39745 15.7989 3.43426 15.6304 3.43426C15.4618 3.43426 15.2955 3.39745 15.1447 3.32675C14.9939 3.25605 14.8626 3.15338 14.7613 3.02686C14.393 2.52685 13.8399 2.17327 13.2095 2.03483C12.5791 1.8964 11.9164 1.98299 11.3502 2.27779C10.9427 2.49125 10.6033 2.80288 10.3667 3.18056C10.1302 3.55824 10.0052 3.98831 10.0046 4.42645Z" fill="#3689B1"/>
</svg>
